<?xml version="1.0" encoding="UTF-8" standalone="no"?>
<!-- Page 1 -->

<svg
   xmlns:dc="http://purl.org/dc/elements/1.1/"
   xmlns:cc="http://creativecommons.org/ns#"
   xmlns:rdf="http://www.w3.org/1999/02/22-rdf-syntax-ns#"
   xmlns:svg="http://www.w3.org/2000/svg"
   xmlns="http://www.w3.org/2000/svg"
   xmlns:sodipodi="http://sodipodi.sourceforge.net/DTD/sodipodi-0.dtd"
   xmlns:inkscape="http://www.inkscape.org/namespaces/inkscape"
   x="0"
   y="0"
   width="1819"
   height="1286"
   version="1.1"
   style="display: block;margin-left: auto;margin-right: auto;"
   id="svg2"
   inkscape:version="0.91 r13725"
   sodipodi:docname="annotatedSVG.svg">
  <metadata
     id="metadata712">
    <rdf:RDF>
      <cc:Work
         rdf:about="">
        <dc:format>image/svg+xml</dc:format>
        <dc:type
           rdf:resource="http://purl.org/dc/dcmitype/StillImage" />
        <dc:title>box9000 Page1</dc:title>
      </cc:Work>
    </rdf:RDF>
  </metadata>
  <sodipodi:namedview
     pagecolor="#ffffff"
     bordercolor="#666666"
     borderopacity="1"
     objecttolerance="10"
     gridtolerance="10"
     guidetolerance="10"
     inkscape:pageopacity="0"
     inkscape:pageshadow="2"
     inkscape:window-width="1600"
     inkscape:window-height="838"
     id="namedview710"
     showgrid="false"
     inkscape:zoom="0.50578741"
     inkscape:cx="1025.2523"
     inkscape:cy="654.70846"
     inkscape:window-x="-8"
     inkscape:window-y="-8"
     inkscape:window-maximized="1"
     inkscape:current-layer="svg2" />
  <defs
     id="defs4">
    <inkscape:perspective
       sodipodi:type="inkscape:persp3d"
       inkscape:vp_x="0 : 643 : 1"
       inkscape:vp_y="0 : 1000 : 0"
       inkscape:vp_z="1819 : 643 : 1"
       inkscape:persp3d-origin="909.5 : 428.66667 : 1"
       id="perspective3776" />
    <style
       type="text/css"
       id="style6"><![CDATA[

.g1_1{
fill: none;
stroke: #000000;
stroke-width: 2;
stroke-linecap: round;
stroke-linejoin: round;
}


]]></style>
  </defs>
  <path
     d="M387.6,702.8c0.1,36.6,29.8,66.3,66.4,66.3c36.6,0,66.3,-29.7,66.3,-66.3c0,-36.6,-29.7,-66.3,-66.3,-66.3c-36.6,0,-66.3,29.7,-66.3,66.3"
     class="g1_1"
     id="path10" />
  <path
     d="M348,993l211,0l0,-691l-211,0l0,691Z"
     class="g1_1"
     id="path12" />
  <path
     d="M352.7,856.7c0,1.1,1.1,2.2,2.4,2.2c1.3,0,2.3,-1.1,2.3,-2.4c0,-1.3,-1,-2.3,-2.3,-2.3c-1.3,0,-2.4,1,-2.4,2.3"
     class="g1_1"
     id="path14" />
  <path
     d="M364.3,856.7c0.1,1.1,1.2,2.2,2.5,2.2c1.3,0,2.3,-1.1,2.3,-2.4c0,-1.3,-1,-2.3,-2.3,-2.3c-1.3,0,-2.4,1,-2.4,2.3"
     class="g1_1"
     id="path16" />
  <path
     d="M376,856.7c0.1,1.1,1.2,2.2,2.5,2.2c1.3,0,2.3,-1.1,2.3,-2.4c0,-1.3,-1,-2.3,-2.3,-2.3c-1.3,0,-2.4,1,-2.4,2.3"
     class="g1_1"
     id="path18" />
  <path
     d="M387.8,856.7c0,1.1,1.1,2.2,2.4,2.2c1.3,0,2.3,-1.1,2.3,-2.4c0,-1.3,-1,-2.3,-2.3,-2.3c-1.3,0,-2.4,1,-2.4,2.3"
     class="g1_1"
     id="path20" />
  <path
     d="M399.5,856.7c0,1.1,1.1,2.2,2.4,2.2c1.3,0,2.3,-1.1,2.3,-2.4c0,-1.3,-1,-2.3,-2.3,-2.3c-1.3,0,-2.4,1,-2.4,2.3"
     class="g1_1"
     id="path22" />
  <path
     d="M411.2,856.7c0,1.1,1.1,2.2,2.4,2.2c1.3,0,2.3,-1.1,2.3,-2.4c0,-1.3,-1,-2.3,-2.3,-2.3c-1.3,0,-2.4,1,-2.4,2.3"
     class="g1_1"
     id="path24" />
  <path
     d="M422.8,856.7c0.1,1.1,1.2,2.2,2.5,2.2c1.3,0,2.3,-1.1,2.3,-2.4c0,-1.3,-1,-2.3,-2.3,-2.3c-1.3,0,-2.4,1,-2.4,2.3"
     class="g1_1"
     id="path26" />
  <path
     d="M434.5,856.7c0.1,1.1,1.2,2.2,2.5,2.2c1.3,0,2.3,-1.1,2.3,-2.4c0,-1.3,-1,-2.3,-2.3,-2.3c-1.3,0,-2.4,1,-2.4,2.3"
     class="g1_1"
     id="path28" />
  <path
     d="M446.2,856.7c0.1,1.1,1.2,2.2,2.5,2.2c1.3,0,2.3,-1.1,2.3,-2.4c0,-1.3,-1,-2.3,-2.3,-2.3c-1.3,0,-2.4,1,-2.4,2.3"
     class="g1_1"
     id="path30" />
  <path
     d="M458,856.7c0,1.1,1.1,2.2,2.4,2.2c1.3,0,2.3,-1.1,2.3,-2.4c0,-1.3,-1,-2.3,-2.3,-2.3c-1.3,0,-2.4,1,-2.4,2.3"
     class="g1_1"
     id="path32" />
  <path
     d="M469.7,856.7c0,1.1,1.1,2.2,2.4,2.2c1.3,0,2.3,-1.1,2.3,-2.4c0,-1.3,-1,-2.3,-2.3,-2.3c-1.3,0,-2.4,1,-2.4,2.3"
     class="g1_1"
     id="path34" />
  <path
     d="M481.4,856.7c0,1.1,1.1,2.2,2.4,2.2c1.3,0,2.3,-1.1,2.3,-2.4c0,-1.3,-1,-2.3,-2.3,-2.3c-1.3,0,-2.4,1,-2.4,2.3"
     class="g1_1"
     id="path36" />
  <path
     d="M493,856.7c0.1,1.1,1.2,2.2,2.5,2.2c1.3,0,2.3,-1.1,2.3,-2.4c0,-1.3,-1,-2.3,-2.3,-2.3c-1.3,0,-2.4,1,-2.4,2.3"
     class="g1_1"
     id="path38" />
  <path
     d="M504.7,856.7c0.1,1.1,1.2,2.2,2.5,2.2c1.3,0,2.3,-1.1,2.3,-2.4c0,-1.3,-1,-2.3,-2.3,-2.3c-1.3,0,-2.4,1,-2.4,2.3"
     class="g1_1"
     id="path40" />
  <path
     d="M516.5,856.7c0,1.1,1.1,2.2,2.4,2.2c1.3,0,2.3,-1.1,2.3,-2.4c0,-1.3,-1,-2.3,-2.3,-2.3c-1.3,0,-2.4,1,-2.4,2.3"
     class="g1_1"
     id="path42" />
  <path
     d="M528.2,856.7c0,1.1,1.1,2.2,2.4,2.2c1.3,0,2.3,-1.1,2.3,-2.4c0,-1.3,-1,-2.3,-2.3,-2.3c-1.3,0,-2.4,1,-2.4,2.3"
     class="g1_1"
     id="path44" />
  <path
     d="M539.9,856.7c0,1.1,1.1,2.2,2.4,2.2c1.3,0,2.3,-1.1,2.3,-2.4c0,-1.3,-1,-2.3,-2.3,-2.3c-1.3,0,-2.4,1,-2.4,2.3"
     class="g1_1"
     id="path46" />
  <path
     d="M551.5,856.7c0.1,1.1,1.2,2.2,2.5,2.2c1.3,0,2.3,-1.1,2.3,-2.4c0,-1.3,-1,-2.3,-2.3,-2.3c-1.3,0,-2.4,1,-2.4,2.3"
     class="g1_1"
     id="path48" />
  <path
     d="M352.7,868.4c0,1.1,1.1,2.2,2.4,2.2c1.3,0,2.3,-1.1,2.3,-2.4c0,-1.3,-1,-2.3,-2.3,-2.3c-1.3,0,-2.4,1,-2.4,2.3"
     class="g1_1"
     id="path50" />
  <path
     d="M364.3,868.4c0.1,1.1,1.2,2.2,2.5,2.2c1.3,0,2.3,-1.1,2.3,-2.4c0,-1.3,-1,-2.3,-2.3,-2.3c-1.3,0,-2.4,1,-2.4,2.3"
     class="g1_1"
     id="path52" />
  <path
     d="M376,868.4c0.1,1.1,1.2,2.2,2.5,2.2c1.3,0,2.3,-1.1,2.3,-2.4c0,-1.3,-1,-2.3,-2.3,-2.3c-1.3,0,-2.4,1,-2.4,2.3"
     class="g1_1"
     id="path54" />
  <path
     d="M387.8,868.4c0,1.1,1.1,2.2,2.4,2.2c1.3,0,2.3,-1.1,2.3,-2.4c0,-1.3,-1,-2.3,-2.3,-2.3c-1.3,0,-2.4,1,-2.4,2.3"
     class="g1_1"
     id="path56" />
  <path
     d="M399.5,868.4c0,1.1,1.1,2.2,2.4,2.2c1.3,0,2.3,-1.1,2.3,-2.4c0,-1.3,-1,-2.3,-2.3,-2.3c-1.3,0,-2.4,1,-2.4,2.3"
     class="g1_1"
     id="path58" />
  <path
     d="M411.2,868.4c0,1.1,1.1,2.2,2.4,2.2c1.3,0,2.3,-1.1,2.3,-2.4c0,-1.3,-1,-2.3,-2.3,-2.3c-1.3,0,-2.4,1,-2.4,2.3"
     class="g1_1"
     id="path60" />
  <path
     d="M422.8,868.4c0.1,1.1,1.2,2.2,2.5,2.2c1.3,0,2.3,-1.1,2.3,-2.4c0,-1.3,-1,-2.3,-2.3,-2.3c-1.3,0,-2.4,1,-2.4,2.3"
     class="g1_1"
     id="path62" />
  <path
     d="M434.5,868.4c0.1,1.1,1.2,2.2,2.5,2.2c1.3,0,2.3,-1.1,2.3,-2.4c0,-1.3,-1,-2.3,-2.3,-2.3c-1.3,0,-2.4,1,-2.4,2.3"
     class="g1_1"
     id="path64" />
  <path
     d="M446.2,868.4c0.1,1.1,1.2,2.2,2.5,2.2c1.3,0,2.3,-1.1,2.3,-2.4c0,-1.3,-1,-2.3,-2.3,-2.3c-1.3,0,-2.4,1,-2.4,2.3"
     class="g1_1"
     id="path66" />
  <path
     d="M458,868.4c0,1.1,1.1,2.2,2.4,2.2c1.3,0,2.3,-1.1,2.3,-2.4c0,-1.3,-1,-2.3,-2.3,-2.3c-1.3,0,-2.4,1,-2.4,2.3"
     class="g1_1"
     id="path68" />
  <path
     d="M469.7,868.4c0,1.1,1.1,2.2,2.4,2.2c1.3,0,2.3,-1.1,2.3,-2.4c0,-1.3,-1,-2.3,-2.3,-2.3c-1.3,0,-2.4,1,-2.4,2.3"
     class="g1_1"
     id="path70" />
  <path
     d="M481.4,868.4c0,1.1,1.1,2.2,2.4,2.2c1.3,0,2.3,-1.1,2.3,-2.4c0,-1.3,-1,-2.3,-2.3,-2.3c-1.3,0,-2.4,1,-2.4,2.3"
     class="g1_1"
     id="path72" />
  <path
     d="M493,868.4c0.1,1.1,1.2,2.2,2.5,2.2c1.3,0,2.3,-1.1,2.3,-2.4c0,-1.3,-1,-2.3,-2.3,-2.3c-1.3,0,-2.4,1,-2.4,2.3"
     class="g1_1"
     id="path74" />
  <path
     d="M504.7,868.4c0.1,1.1,1.2,2.2,2.5,2.2c1.3,0,2.3,-1.1,2.3,-2.4c0,-1.3,-1,-2.3,-2.3,-2.3c-1.3,0,-2.4,1,-2.4,2.3"
     class="g1_1"
     id="path76" />
  <path
     d="M516.5,868.4c0,1.1,1.1,2.2,2.4,2.2c1.3,0,2.3,-1.1,2.3,-2.4c0,-1.3,-1,-2.3,-2.3,-2.3c-1.3,0,-2.4,1,-2.4,2.3"
     class="g1_1"
     id="path78" />
  <path
     d="M528.2,868.4c0,1.1,1.1,2.2,2.4,2.2c1.3,0,2.3,-1.1,2.3,-2.4c0,-1.3,-1,-2.3,-2.3,-2.3c-1.3,0,-2.4,1,-2.4,2.3"
     class="g1_1"
     id="path80" />
  <path
     d="M539.9,868.4c0,1.1,1.1,2.2,2.4,2.2c1.3,0,2.3,-1.1,2.3,-2.4c0,-1.3,-1,-2.3,-2.3,-2.3c-1.3,0,-2.4,1,-2.4,2.3"
     class="g1_1"
     id="path82" />
  <path
     d="M551.5,868.4c0.1,1.1,1.2,2.2,2.5,2.2c1.3,0,2.3,-1.1,2.3,-2.4c0,-1.3,-1,-2.3,-2.3,-2.3c-1.3,0,-2.4,1,-2.4,2.3"
     class="g1_1"
     id="path84" />
  <path
     d="M352.7,879.9c0,1.3,1.1,2.4,2.4,2.4c1.3,0,2.3,-1.1,2.3,-2.4c0,-1.3,-1,-2.3,-2.3,-2.3c-1.3,0,-2.4,1,-2.4,2.3"
     class="g1_1"
     id="path86" />
  <path
     d="M364.3,879.9c0.1,1.3,1.2,2.4,2.5,2.4c1.3,0,2.3,-1.1,2.3,-2.4c0,-1.3,-1,-2.3,-2.3,-2.3c-1.3,0,-2.4,1,-2.4,2.3"
     class="g1_1"
     id="path88" />
  <path
     d="M376,879.9c0.1,1.3,1.2,2.4,2.5,2.4c1.3,0,2.3,-1.1,2.3,-2.4c0,-1.3,-1,-2.3,-2.3,-2.3c-1.3,0,-2.4,1,-2.4,2.3"
     class="g1_1"
     id="path90" />
  <path
     d="M387.8,879.9c0,1.3,1.1,2.4,2.4,2.4c1.3,0,2.3,-1.1,2.3,-2.4c0,-1.3,-1,-2.3,-2.3,-2.3c-1.3,0,-2.4,1,-2.4,2.3"
     class="g1_1"
     id="path92" />
  <path
     d="M399.5,879.9c0,1.3,1.1,2.4,2.4,2.4c1.3,0,2.3,-1.1,2.3,-2.4c0,-1.3,-1,-2.3,-2.3,-2.3c-1.3,0,-2.4,1,-2.4,2.3"
     class="g1_1"
     id="path94" />
  <path
     d="M411.2,879.9c0,1.3,1.1,2.4,2.4,2.4c1.3,0,2.3,-1.1,2.3,-2.4c0,-1.3,-1,-2.3,-2.3,-2.3c-1.3,0,-2.4,1,-2.4,2.3"
     class="g1_1"
     id="path96" />
  <path
     d="M422.8,879.9c0.1,1.3,1.2,2.4,2.5,2.4c1.3,0,2.3,-1.1,2.3,-2.4c0,-1.3,-1,-2.3,-2.3,-2.3c-1.3,0,-2.4,1,-2.4,2.3"
     class="g1_1"
     id="path98" />
  <path
     d="M434.5,879.9c0.1,1.3,1.2,2.4,2.5,2.4c1.3,0,2.3,-1.1,2.3,-2.4c0,-1.3,-1,-2.3,-2.3,-2.3c-1.3,0,-2.4,1,-2.4,2.3"
     class="g1_1"
     id="path100" />
  <path
     d="M446.2,879.9c0.1,1.3,1.2,2.4,2.5,2.4c1.3,0,2.3,-1.1,2.3,-2.4c0,-1.3,-1,-2.3,-2.3,-2.3c-1.3,0,-2.4,1,-2.4,2.3"
     class="g1_1"
     id="path102" />
  <path
     d="M458,879.9c0,1.3,1.1,2.4,2.4,2.4c1.3,0,2.3,-1.1,2.3,-2.4c0,-1.3,-1,-2.3,-2.3,-2.3c-1.3,0,-2.4,1,-2.4,2.3"
     class="g1_1"
     id="path104" />
  <path
     d="M469.7,879.9c0,1.3,1.1,2.4,2.4,2.4c1.3,0,2.3,-1.1,2.3,-2.4c0,-1.3,-1,-2.3,-2.3,-2.3c-1.3,0,-2.4,1,-2.4,2.3"
     class="g1_1"
     id="path106" />
  <path
     d="M481.4,879.9c0,1.3,1.1,2.4,2.4,2.4c1.3,0,2.3,-1.1,2.3,-2.4c0,-1.3,-1,-2.3,-2.3,-2.3c-1.3,0,-2.4,1,-2.4,2.3"
     class="g1_1"
     id="path108" />
  <path
     d="M493,879.9c0.1,1.3,1.2,2.4,2.5,2.4c1.3,0,2.3,-1.1,2.3,-2.4c0,-1.3,-1,-2.3,-2.3,-2.3c-1.3,0,-2.4,1,-2.4,2.3"
     class="g1_1"
     id="path110" />
  <path
     d="M504.7,879.9c0.1,1.3,1.2,2.4,2.5,2.4c1.3,0,2.3,-1.1,2.3,-2.4c0,-1.3,-1,-2.3,-2.3,-2.3c-1.3,0,-2.4,1,-2.4,2.3"
     class="g1_1"
     id="path112" />
  <path
     d="M516.5,879.9c0,1.3,1.1,2.4,2.4,2.4c1.3,0,2.3,-1.1,2.3,-2.4c0,-1.3,-1,-2.3,-2.3,-2.3c-1.3,0,-2.4,1,-2.4,2.3"
     class="g1_1"
     id="path114" />
  <path
     d="M528.2,879.9c0,1.3,1.1,2.4,2.4,2.4c1.3,0,2.3,-1.1,2.3,-2.4c0,-1.3,-1,-2.3,-2.3,-2.3c-1.3,0,-2.4,1,-2.4,2.3"
     class="g1_1"
     id="path116" />
  <path
     d="M539.9,879.9c0,1.3,1.1,2.4,2.4,2.4c1.3,0,2.3,-1.1,2.3,-2.4c0,-1.3,-1,-2.3,-2.3,-2.3c-1.3,0,-2.4,1,-2.4,2.3"
     class="g1_1"
     id="path118" />
  <path
     d="M551.5,879.9c0.1,1.3,1.2,2.4,2.5,2.4c1.3,0,2.3,-1.1,2.3,-2.4c0,-1.3,-1,-2.3,-2.3,-2.3c-1.3,0,-2.4,1,-2.4,2.3"
     class="g1_1"
     id="path120" />
  <path
     d="M352.7,891.7c0,1.2,1.1,2.3,2.4,2.3c1.3,0,2.3,-1.1,2.3,-2.4c0,-1.3,-1,-2.3,-2.3,-2.3c-1.3,0,-2.4,1,-2.4,2.3"
     class="g1_1"
     id="path122" />
  <path
     d="M364.3,891.7c0.1,1.2,1.2,2.3,2.5,2.3c1.3,0,2.3,-1.1,2.3,-2.4c0,-1.3,-1,-2.3,-2.3,-2.3c-1.3,0,-2.4,1,-2.4,2.3"
     class="g1_1"
     id="path124" />
  <path
     d="M376,891.7c0.1,1.2,1.2,2.3,2.5,2.3c1.3,0,2.3,-1.1,2.3,-2.4c0,-1.3,-1,-2.3,-2.3,-2.3c-1.3,0,-2.4,1,-2.4,2.3"
     class="g1_1"
     id="path126" />
  <path
     d="M387.8,891.7c0,1.2,1.1,2.3,2.4,2.3c1.3,0,2.3,-1.1,2.3,-2.4c0,-1.3,-1,-2.3,-2.3,-2.3c-1.3,0,-2.4,1,-2.4,2.3"
     class="g1_1"
     id="path128" />
  <path
     d="M399.5,891.7c0,1.2,1.1,2.3,2.4,2.3c1.3,0,2.3,-1.1,2.3,-2.4c0,-1.3,-1,-2.3,-2.3,-2.3c-1.3,0,-2.4,1,-2.4,2.3"
     class="g1_1"
     id="path130" />
  <path
     d="M411.2,891.7c0,1.2,1.1,2.3,2.4,2.3c1.3,0,2.3,-1.1,2.3,-2.4c0,-1.3,-1,-2.3,-2.3,-2.3c-1.3,0,-2.4,1,-2.4,2.3"
     class="g1_1"
     id="path132" />
  <path
     d="M422.8,891.7c0.1,1.2,1.2,2.3,2.5,2.3c1.3,0,2.3,-1.1,2.3,-2.4c0,-1.3,-1,-2.3,-2.3,-2.3c-1.3,0,-2.4,1,-2.4,2.3"
     class="g1_1"
     id="path134" />
  <path
     d="M434.5,891.7c0.1,1.2,1.2,2.3,2.5,2.3c1.3,0,2.3,-1.1,2.3,-2.4c0,-1.3,-1,-2.3,-2.3,-2.3c-1.3,0,-2.4,1,-2.4,2.3"
     class="g1_1"
     id="path136" />
  <path
     d="M446.2,891.7c0.1,1.2,1.2,2.3,2.5,2.3c1.3,0,2.3,-1.1,2.3,-2.4c0,-1.3,-1,-2.3,-2.3,-2.3c-1.3,0,-2.4,1,-2.4,2.3"
     class="g1_1"
     id="path138" />
  <path
     d="M458,891.7c0,1.2,1.1,2.3,2.4,2.3c1.3,0,2.3,-1.1,2.3,-2.4c0,-1.3,-1,-2.3,-2.3,-2.3c-1.3,0,-2.4,1,-2.4,2.3"
     class="g1_1"
     id="path140" />
  <path
     d="M469.7,891.7c0,1.2,1.1,2.3,2.4,2.3c1.3,0,2.3,-1.1,2.3,-2.4c0,-1.3,-1,-2.3,-2.3,-2.3c-1.3,0,-2.4,1,-2.4,2.3"
     class="g1_1"
     id="path142" />
  <path
     d="M481.4,891.7c0,1.2,1.1,2.3,2.4,2.3c1.3,0,2.3,-1.1,2.3,-2.4c0,-1.3,-1,-2.3,-2.3,-2.3c-1.3,0,-2.4,1,-2.4,2.3"
     class="g1_1"
     id="path144" />
  <path
     d="M493,891.7c0.1,1.2,1.2,2.3,2.5,2.3c1.3,0,2.3,-1.1,2.3,-2.4c0,-1.3,-1,-2.3,-2.3,-2.3c-1.3,0,-2.4,1,-2.4,2.3"
     class="g1_1"
     id="path146" />
  <path
     d="M504.7,891.7c0.1,1.2,1.2,2.3,2.5,2.3c1.3,0,2.3,-1.1,2.3,-2.4c0,-1.3,-1,-2.3,-2.3,-2.3c-1.3,0,-2.4,1,-2.4,2.3"
     class="g1_1"
     id="path148" />
  <path
     d="M516.5,891.7c0,1.2,1.1,2.3,2.4,2.3c1.3,0,2.3,-1.1,2.3,-2.4c0,-1.3,-1,-2.3,-2.3,-2.3c-1.3,0,-2.4,1,-2.4,2.3"
     class="g1_1"
     id="path150" />
  <path
     d="M528.2,891.7c0,1.2,1.1,2.3,2.4,2.3c1.3,0,2.3,-1.1,2.3,-2.4c0,-1.3,-1,-2.3,-2.3,-2.3c-1.3,0,-2.4,1,-2.4,2.3"
     class="g1_1"
     id="path152" />
  <path
     d="M539.9,891.7c0,1.2,1.1,2.3,2.4,2.3c1.3,0,2.3,-1.1,2.3,-2.4c0,-1.3,-1,-2.3,-2.3,-2.3c-1.3,0,-2.4,1,-2.4,2.3"
     class="g1_1"
     id="path154" />
  <path
     d="M551.5,891.7c0.1,1.2,1.2,2.3,2.5,2.3c1.3,0,2.3,-1.1,2.3,-2.4c0,-1.3,-1,-2.3,-2.3,-2.3c-1.3,0,-2.4,1,-2.4,2.3"
     class="g1_1"
     id="path156" />
  <path
     d="M352.7,903.4c0,1.2,1.1,2.3,2.4,2.3c1.3,0,2.3,-1.1,2.3,-2.4c0,-1.3,-1,-2.3,-2.3,-2.3c-1.3,0,-2.4,1,-2.4,2.3"
     class="g1_1"
     id="path158" />
  <path
     d="M364.3,903.4c0.1,1.2,1.2,2.3,2.5,2.3c1.3,0,2.3,-1.1,2.3,-2.4c0,-1.3,-1,-2.3,-2.3,-2.3c-1.3,0,-2.4,1,-2.4,2.3"
     class="g1_1"
     id="path160" />
  <path
     d="M376,903.4c0.1,1.2,1.2,2.3,2.5,2.3c1.3,0,2.3,-1.1,2.3,-2.4c0,-1.3,-1,-2.3,-2.3,-2.3c-1.3,0,-2.4,1,-2.4,2.3"
     class="g1_1"
     id="path162" />
  <path
     d="M387.8,903.4c0,1.2,1.1,2.3,2.4,2.3c1.3,0,2.3,-1.1,2.3,-2.4c0,-1.3,-1,-2.3,-2.3,-2.3c-1.3,0,-2.4,1,-2.4,2.3"
     class="g1_1"
     id="path164" />
  <path
     d="M399.5,903.4c0,1.2,1.1,2.3,2.4,2.3c1.3,0,2.3,-1.1,2.3,-2.4c0,-1.3,-1,-2.3,-2.3,-2.3c-1.3,0,-2.4,1,-2.4,2.3"
     class="g1_1"
     id="path166" />
  <path
     d="M411.2,903.4c0,1.2,1.1,2.3,2.4,2.3c1.3,0,2.3,-1.1,2.3,-2.4c0,-1.3,-1,-2.3,-2.3,-2.3c-1.3,0,-2.4,1,-2.4,2.3"
     class="g1_1"
     id="path168" />
  <path
     d="M422.8,903.4c0.1,1.2,1.2,2.3,2.5,2.3c1.3,0,2.3,-1.1,2.3,-2.4c0,-1.3,-1,-2.3,-2.3,-2.3c-1.3,0,-2.4,1,-2.4,2.3"
     class="g1_1"
     id="path170" />
  <path
     d="M434.5,903.4c0.1,1.2,1.2,2.3,2.5,2.3c1.3,0,2.3,-1.1,2.3,-2.4c0,-1.3,-1,-2.3,-2.3,-2.3c-1.3,0,-2.4,1,-2.4,2.3"
     class="g1_1"
     id="path172" />
  <path
     d="M446.2,903.4c0.1,1.2,1.2,2.3,2.5,2.3c1.3,0,2.3,-1.1,2.3,-2.4c0,-1.3,-1,-2.3,-2.3,-2.3c-1.3,0,-2.4,1,-2.4,2.3"
     class="g1_1"
     id="path174" />
  <path
     d="M458,903.4c0,1.2,1.1,2.3,2.4,2.3c1.3,0,2.3,-1.1,2.3,-2.4c0,-1.3,-1,-2.3,-2.3,-2.3c-1.3,0,-2.4,1,-2.4,2.3"
     class="g1_1"
     id="path176" />
  <path
     d="M469.7,903.4c0,1.2,1.1,2.3,2.4,2.3c1.3,0,2.3,-1.1,2.3,-2.4c0,-1.3,-1,-2.3,-2.3,-2.3c-1.3,0,-2.4,1,-2.4,2.3"
     class="g1_1"
     id="path178" />
  <path
     d="M481.4,903.4c0,1.2,1.1,2.3,2.4,2.3c1.3,0,2.3,-1.1,2.3,-2.4c0,-1.3,-1,-2.3,-2.3,-2.3c-1.3,0,-2.4,1,-2.4,2.3"
     class="g1_1"
     id="path180" />
  <path
     d="M493,903.4c0.1,1.2,1.2,2.3,2.5,2.3c1.3,0,2.3,-1.1,2.3,-2.4c0,-1.3,-1,-2.3,-2.3,-2.3c-1.3,0,-2.4,1,-2.4,2.3"
     class="g1_1"
     id="path182" />
  <path
     d="M504.7,903.4c0.1,1.2,1.2,2.3,2.5,2.3c1.3,0,2.3,-1.1,2.3,-2.4c0,-1.3,-1,-2.3,-2.3,-2.3c-1.3,0,-2.4,1,-2.4,2.3"
     class="g1_1"
     id="path184" />
  <path
     d="M516.5,903.4c0,1.2,1.1,2.3,2.4,2.3c1.3,0,2.3,-1.1,2.3,-2.4c0,-1.3,-1,-2.3,-2.3,-2.3c-1.3,0,-2.4,1,-2.4,2.3"
     class="g1_1"
     id="path186" />
  <path
     d="M528.2,903.4c0,1.2,1.1,2.3,2.4,2.3c1.3,0,2.3,-1.1,2.3,-2.4c0,-1.3,-1,-2.3,-2.3,-2.3c-1.3,0,-2.4,1,-2.4,2.3"
     class="g1_1"
     id="path188" />
  <path
     d="M539.9,903.4c0,1.2,1.1,2.3,2.4,2.3c1.3,0,2.3,-1.1,2.3,-2.4c0,-1.3,-1,-2.3,-2.3,-2.3c-1.3,0,-2.4,1,-2.4,2.3"
     class="g1_1"
     id="path190" />
  <path
     d="M551.5,903.4c0.1,1.2,1.2,2.3,2.5,2.3c1.3,0,2.3,-1.1,2.3,-2.4c0,-1.3,-1,-2.3,-2.3,-2.3c-1.3,0,-2.4,1,-2.4,2.3"
     class="g1_1"
     id="path192" />
  <path
     d="M352.7,915.1c0,1.2,1.1,2.3,2.4,2.3c1.3,0,2.3,-1.1,2.3,-2.4c0,-1.3,-1,-2.3,-2.3,-2.3c-1.3,0,-2.4,1,-2.4,2.3"
     class="g1_1"
     id="path194" />
  <path
     d="M364.3,915.1c0.1,1.2,1.2,2.3,2.5,2.3c1.3,0,2.3,-1.1,2.3,-2.4c0,-1.3,-1,-2.3,-2.3,-2.3c-1.3,0,-2.4,1,-2.4,2.3"
     class="g1_1"
     id="path196" />
  <path
     d="M376,915.1c0.1,1.2,1.2,2.3,2.5,2.3c1.3,0,2.3,-1.1,2.3,-2.4c0,-1.3,-1,-2.3,-2.3,-2.3c-1.3,0,-2.4,1,-2.4,2.3"
     class="g1_1"
     id="path198" />
  <path
     d="M387.8,915.1c0,1.2,1.1,2.3,2.4,2.3c1.3,0,2.3,-1.1,2.3,-2.4c0,-1.3,-1,-2.3,-2.3,-2.3c-1.3,0,-2.4,1,-2.4,2.3"
     class="g1_1"
     id="path200" />
  <path
     d="M399.5,915.1c0,1.2,1.1,2.3,2.4,2.3c1.3,0,2.3,-1.1,2.3,-2.4c0,-1.3,-1,-2.3,-2.3,-2.3c-1.3,0,-2.4,1,-2.4,2.3"
     class="g1_1"
     id="path202" />
  <path
     d="M411.2,915.1c0,1.2,1.1,2.3,2.4,2.3c1.3,0,2.3,-1.1,2.3,-2.4c0,-1.3,-1,-2.3,-2.3,-2.3c-1.3,0,-2.4,1,-2.4,2.3"
     class="g1_1"
     id="path204" />
  <path
     d="M422.8,915.1c0.1,1.2,1.2,2.3,2.5,2.3c1.3,0,2.3,-1.1,2.3,-2.4c0,-1.3,-1,-2.3,-2.3,-2.3c-1.3,0,-2.4,1,-2.4,2.3"
     class="g1_1"
     id="path206" />
  <path
     d="M434.5,915.1c0.1,1.2,1.2,2.3,2.5,2.3c1.3,0,2.3,-1.1,2.3,-2.4c0,-1.3,-1,-2.3,-2.3,-2.3c-1.3,0,-2.4,1,-2.4,2.3"
     class="g1_1"
     id="path208" />
  <path
     d="M446.2,915.1c0.1,1.2,1.2,2.3,2.5,2.3c1.3,0,2.3,-1.1,2.3,-2.4c0,-1.3,-1,-2.3,-2.3,-2.3c-1.3,0,-2.4,1,-2.4,2.3"
     class="g1_1"
     id="path210" />
  <path
     d="M458,915.1c0,1.2,1.1,2.3,2.4,2.3c1.3,0,2.3,-1.1,2.3,-2.4c0,-1.3,-1,-2.3,-2.3,-2.3c-1.3,0,-2.4,1,-2.4,2.3"
     class="g1_1"
     id="path212" />
  <path
     d="M469.7,915.1c0,1.2,1.1,2.3,2.4,2.3c1.3,0,2.3,-1.1,2.3,-2.4c0,-1.3,-1,-2.3,-2.3,-2.3c-1.3,0,-2.4,1,-2.4,2.3"
     class="g1_1"
     id="path214" />
  <path
     d="M481.4,915.1c0,1.2,1.1,2.3,2.4,2.3c1.3,0,2.3,-1.1,2.3,-2.4c0,-1.3,-1,-2.3,-2.3,-2.3c-1.3,0,-2.4,1,-2.4,2.3"
     class="g1_1"
     id="path216" />
  <path
     d="M493,915.1c0.1,1.2,1.2,2.3,2.5,2.3c1.3,0,2.3,-1.1,2.3,-2.4c0,-1.3,-1,-2.3,-2.3,-2.3c-1.3,0,-2.4,1,-2.4,2.3"
     class="g1_1"
     id="path218" />
  <path
     d="M504.7,915.1c0.1,1.2,1.2,2.3,2.5,2.3c1.3,0,2.3,-1.1,2.3,-2.4c0,-1.3,-1,-2.3,-2.3,-2.3c-1.3,0,-2.4,1,-2.4,2.3"
     class="g1_1"
     id="path220" />
  <path
     d="M516.5,915.1c0,1.2,1.1,2.3,2.4,2.3c1.3,0,2.3,-1.1,2.3,-2.4c0,-1.3,-1,-2.3,-2.3,-2.3c-1.3,0,-2.4,1,-2.4,2.3"
     class="g1_1"
     id="path222" />
  <path
     d="M528.2,915.1c0,1.2,1.1,2.3,2.4,2.3c1.3,0,2.3,-1.1,2.3,-2.4c0,-1.3,-1,-2.3,-2.3,-2.3c-1.3,0,-2.4,1,-2.4,2.3"
     class="g1_1"
     id="path224" />
  <path
     d="M539.9,915.1c0,1.2,1.1,2.3,2.4,2.3c1.3,0,2.3,-1.1,2.3,-2.4c0,-1.3,-1,-2.3,-2.3,-2.3c-1.3,0,-2.4,1,-2.4,2.3"
     class="g1_1"
     id="path226" />
  <path
     d="M551.5,915.1c0.1,1.2,1.2,2.3,2.5,2.3c1.3,0,2.3,-1.1,2.3,-2.4c0,-1.3,-1,-2.3,-2.3,-2.3c-1.3,0,-2.4,1,-2.4,2.3"
     class="g1_1"
     id="path228" />
  <path
     d="M352.7,926.9c0,1.1,1.1,2.2,2.4,2.2c1.3,0,2.3,-1.1,2.3,-2.4c0,-1.3,-1,-2.3,-2.3,-2.3c-1.3,0,-2.4,1,-2.4,2.3"
     class="g1_1"
     id="path230" />
  <path
     d="M364.3,926.9c0.1,1.1,1.2,2.2,2.5,2.2c1.3,0,2.3,-1.1,2.3,-2.4c0,-1.3,-1,-2.3,-2.3,-2.3c-1.3,0,-2.4,1,-2.4,2.3"
     class="g1_1"
     id="path232" />
  <path
     d="M376,926.9c0.1,1.1,1.2,2.2,2.5,2.2c1.3,0,2.3,-1.1,2.3,-2.4c0,-1.3,-1,-2.3,-2.3,-2.3c-1.3,0,-2.4,1,-2.4,2.3"
     class="g1_1"
     id="path234" />
  <path
     d="M387.8,926.9c0,1.1,1.1,2.2,2.4,2.2c1.3,0,2.3,-1.1,2.3,-2.4c0,-1.3,-1,-2.3,-2.3,-2.3c-1.3,0,-2.4,1,-2.4,2.3"
     class="g1_1"
     id="path236" />
  <path
     d="M399.5,926.9c0,1.1,1.1,2.2,2.4,2.2c1.3,0,2.3,-1.1,2.3,-2.4c0,-1.3,-1,-2.3,-2.3,-2.3c-1.3,0,-2.4,1,-2.4,2.3"
     class="g1_1"
     id="path238" />
  <path
     d="M411.2,926.9c0,1.1,1.1,2.2,2.4,2.2c1.3,0,2.3,-1.1,2.3,-2.4c0,-1.3,-1,-2.3,-2.3,-2.3c-1.3,0,-2.4,1,-2.4,2.3"
     class="g1_1"
     id="path240" />
  <path
     d="M422.8,926.9c0.1,1.1,1.2,2.2,2.5,2.2c1.3,0,2.3,-1.1,2.3,-2.4c0,-1.3,-1,-2.3,-2.3,-2.3c-1.3,0,-2.4,1,-2.4,2.3"
     class="g1_1"
     id="path242" />
  <path
     d="M434.5,926.9c0.1,1.1,1.2,2.2,2.5,2.2c1.3,0,2.3,-1.1,2.3,-2.4c0,-1.3,-1,-2.3,-2.3,-2.3c-1.3,0,-2.4,1,-2.4,2.3"
     class="g1_1"
     id="path244" />
  <path
     d="M446.2,926.9c0.1,1.1,1.2,2.2,2.5,2.2c1.3,0,2.3,-1.1,2.3,-2.4c0,-1.3,-1,-2.3,-2.3,-2.3c-1.3,0,-2.4,1,-2.4,2.3"
     class="g1_1"
     id="path246" />
  <path
     d="M458,926.9c0,1.1,1.1,2.2,2.4,2.2c1.3,0,2.3,-1.1,2.3,-2.4c0,-1.3,-1,-2.3,-2.3,-2.3c-1.3,0,-2.4,1,-2.4,2.3"
     class="g1_1"
     id="path248" />
  <path
     d="M469.7,926.9c0,1.1,1.1,2.2,2.4,2.2c1.3,0,2.3,-1.1,2.3,-2.4c0,-1.3,-1,-2.3,-2.3,-2.3c-1.3,0,-2.4,1,-2.4,2.3"
     class="g1_1"
     id="path250" />
  <path
     d="M481.4,926.9c0,1.1,1.1,2.2,2.4,2.2c1.3,0,2.3,-1.1,2.3,-2.4c0,-1.3,-1,-2.3,-2.3,-2.3c-1.3,0,-2.4,1,-2.4,2.3"
     class="g1_1"
     id="path252" />
  <path
     d="M493,926.9c0.1,1.1,1.2,2.2,2.5,2.2c1.3,0,2.3,-1.1,2.3,-2.4c0,-1.3,-1,-2.3,-2.3,-2.3c-1.3,0,-2.4,1,-2.4,2.3"
     class="g1_1"
     id="path254" />
  <path
     d="M504.7,926.9c0.1,1.1,1.2,2.2,2.5,2.2c1.3,0,2.3,-1.1,2.3,-2.4c0,-1.3,-1,-2.3,-2.3,-2.3c-1.3,0,-2.4,1,-2.4,2.3"
     class="g1_1"
     id="path256" />
  <path
     d="M516.5,926.9c0,1.1,1.1,2.2,2.4,2.2c1.3,0,2.3,-1.1,2.3,-2.4c0,-1.3,-1,-2.3,-2.3,-2.3c-1.3,0,-2.4,1,-2.4,2.3"
     class="g1_1"
     id="path258" />
  <path
     d="M528.2,926.9c0,1.1,1.1,2.2,2.4,2.2c1.3,0,2.3,-1.1,2.3,-2.4c0,-1.3,-1,-2.3,-2.3,-2.3c-1.3,0,-2.4,1,-2.4,2.3"
     class="g1_1"
     id="path260" />
  <path
     d="M539.9,926.9c0,1.1,1.1,2.2,2.4,2.2c1.3,0,2.3,-1.1,2.3,-2.4c0,-1.3,-1,-2.3,-2.3,-2.3c-1.3,0,-2.4,1,-2.4,2.3"
     class="g1_1"
     id="path262" />
  <path
     d="M551.5,926.9c0.1,1.1,1.2,2.2,2.5,2.2c1.3,0,2.3,-1.1,2.3,-2.4c0,-1.3,-1,-2.3,-2.3,-2.3c-1.3,0,-2.4,1,-2.4,2.3"
     class="g1_1"
     id="path264" />
  <path
     d="M352.7,938.6c0,1.1,1.1,2.2,2.4,2.2c1.3,0,2.3,-1.1,2.3,-2.4c0,-1.3,-1,-2.3,-2.3,-2.3c-1.3,0,-2.4,1,-2.4,2.3"
     class="g1_1"
     id="path266" />
  <path
     d="M364.3,938.6c0.1,1.1,1.2,2.2,2.5,2.2c1.3,0,2.3,-1.1,2.3,-2.4c0,-1.3,-1,-2.3,-2.3,-2.3c-1.3,0,-2.4,1,-2.4,2.3"
     class="g1_1"
     id="path268" />
  <path
     d="M376,938.6c0.1,1.1,1.2,2.2,2.5,2.2c1.3,0,2.3,-1.1,2.3,-2.4c0,-1.3,-1,-2.3,-2.3,-2.3c-1.3,0,-2.4,1,-2.4,2.3"
     class="g1_1"
     id="path270" />
  <path
     d="M387.8,938.6c0,1.1,1.1,2.2,2.4,2.2c1.3,0,2.3,-1.1,2.3,-2.4c0,-1.3,-1,-2.3,-2.3,-2.3c-1.3,0,-2.4,1,-2.4,2.3"
     class="g1_1"
     id="path272" />
  <path
     d="M399.5,938.6c0,1.1,1.1,2.2,2.4,2.2c1.3,0,2.3,-1.1,2.3,-2.4c0,-1.3,-1,-2.3,-2.3,-2.3c-1.3,0,-2.4,1,-2.4,2.3"
     class="g1_1"
     id="path274" />
  <path
     d="M411.2,938.6c0,1.1,1.1,2.2,2.4,2.2c1.3,0,2.3,-1.1,2.3,-2.4c0,-1.3,-1,-2.3,-2.3,-2.3c-1.3,0,-2.4,1,-2.4,2.3"
     class="g1_1"
     id="path276" />
  <path
     d="M422.8,938.6c0.1,1.1,1.2,2.2,2.5,2.2c1.3,0,2.3,-1.1,2.3,-2.4c0,-1.3,-1,-2.3,-2.3,-2.3c-1.3,0,-2.4,1,-2.4,2.3"
     class="g1_1"
     id="path278" />
  <path
     d="M434.5,938.6c0.1,1.1,1.2,2.2,2.5,2.2c1.3,0,2.3,-1.1,2.3,-2.4c0,-1.3,-1,-2.3,-2.3,-2.3c-1.3,0,-2.4,1,-2.4,2.3"
     class="g1_1"
     id="path280" />
  <path
     d="M446.2,938.6c0.1,1.1,1.2,2.2,2.5,2.2c1.3,0,2.3,-1.1,2.3,-2.4c0,-1.3,-1,-2.3,-2.3,-2.3c-1.3,0,-2.4,1,-2.4,2.3"
     class="g1_1"
     id="path282" />
  <path
     d="M458,938.6c0,1.1,1.1,2.2,2.4,2.2c1.3,0,2.3,-1.1,2.3,-2.4c0,-1.3,-1,-2.3,-2.3,-2.3c-1.3,0,-2.4,1,-2.4,2.3"
     class="g1_1"
     id="path284" />
  <path
     d="M469.7,938.6c0,1.1,1.1,2.2,2.4,2.2c1.3,0,2.3,-1.1,2.3,-2.4c0,-1.3,-1,-2.3,-2.3,-2.3c-1.3,0,-2.4,1,-2.4,2.3"
     class="g1_1"
     id="path286" />
  <path
     d="M481.4,938.6c0,1.1,1.1,2.2,2.4,2.2c1.3,0,2.3,-1.1,2.3,-2.4c0,-1.3,-1,-2.3,-2.3,-2.3c-1.3,0,-2.4,1,-2.4,2.3"
     class="g1_1"
     id="path288" />
  <path
     d="M493,938.6c0.1,1.1,1.2,2.2,2.5,2.2c1.3,0,2.3,-1.1,2.3,-2.4c0,-1.3,-1,-2.3,-2.3,-2.3c-1.3,0,-2.4,1,-2.4,2.3"
     class="g1_1"
     id="path290" />
  <path
     d="M504.7,938.6c0.1,1.1,1.2,2.2,2.5,2.2c1.3,0,2.3,-1.1,2.3,-2.4c0,-1.3,-1,-2.3,-2.3,-2.3c-1.3,0,-2.4,1,-2.4,2.3"
     class="g1_1"
     id="path292" />
  <path
     d="M516.5,938.6c0,1.1,1.1,2.2,2.4,2.2c1.3,0,2.3,-1.1,2.3,-2.4c0,-1.3,-1,-2.3,-2.3,-2.3c-1.3,0,-2.4,1,-2.4,2.3"
     class="g1_1"
     id="path294" />
  <path
     d="M528.2,938.6c0,1.1,1.1,2.2,2.4,2.2c1.3,0,2.3,-1.1,2.3,-2.4c0,-1.3,-1,-2.3,-2.3,-2.3c-1.3,0,-2.4,1,-2.4,2.3"
     class="g1_1"
     id="path296" />
  <path
     d="M539.9,938.6c0,1.1,1.1,2.2,2.4,2.2c1.3,0,2.3,-1.1,2.3,-2.4c0,-1.3,-1,-2.3,-2.3,-2.3c-1.3,0,-2.4,1,-2.4,2.3"
     class="g1_1"
     id="path298" />
  <path
     d="M551.5,938.6c0.1,1.1,1.2,2.2,2.5,2.2c1.3,0,2.3,-1.1,2.3,-2.4c0,-1.3,-1,-2.3,-2.3,-2.3c-1.3,0,-2.4,1,-2.4,2.3"
     class="g1_1"
     id="path300" />
  <path
     d="M352.7,950.2c0,1.2,1.1,2.3,2.4,2.3c1.3,0,2.3,-1.1,2.3,-2.4c0,-1.3,-1,-2.3,-2.3,-2.3c-1.3,0,-2.4,1,-2.4,2.3"
     class="g1_1"
     id="path302" />
  <path
     d="M364.3,950.2c0.1,1.2,1.2,2.3,2.5,2.3c1.3,0,2.3,-1.1,2.3,-2.4c0,-1.3,-1,-2.3,-2.3,-2.3c-1.3,0,-2.4,1,-2.4,2.3"
     class="g1_1"
     id="path304" />
  <path
     d="M376,950.2c0.1,1.2,1.2,2.3,2.5,2.3c1.3,0,2.3,-1.1,2.3,-2.4c0,-1.3,-1,-2.3,-2.3,-2.3c-1.3,0,-2.4,1,-2.4,2.3"
     class="g1_1"
     id="path306" />
  <path
     d="M387.8,950.2c0,1.2,1.1,2.3,2.4,2.3c1.3,0,2.3,-1.1,2.3,-2.4c0,-1.3,-1,-2.3,-2.3,-2.3c-1.3,0,-2.4,1,-2.4,2.3"
     class="g1_1"
     id="path308" />
  <path
     d="M399.5,950.2c0,1.2,1.1,2.3,2.4,2.3c1.3,0,2.3,-1.1,2.3,-2.4c0,-1.3,-1,-2.3,-2.3,-2.3c-1.3,0,-2.4,1,-2.4,2.3"
     class="g1_1"
     id="path310" />
  <path
     d="M411.2,950.2c0,1.2,1.1,2.3,2.4,2.3c1.3,0,2.3,-1.1,2.3,-2.4c0,-1.3,-1,-2.3,-2.3,-2.3c-1.3,0,-2.4,1,-2.4,2.3"
     class="g1_1"
     id="path312" />
  <path
     d="M422.8,950.2c0.1,1.2,1.2,2.3,2.5,2.3c1.3,0,2.3,-1.1,2.3,-2.4c0,-1.3,-1,-2.3,-2.3,-2.3c-1.3,0,-2.4,1,-2.4,2.3"
     class="g1_1"
     id="path314" />
  <path
     d="M434.5,950.2c0.1,1.2,1.2,2.3,2.5,2.3c1.3,0,2.3,-1.1,2.3,-2.4c0,-1.3,-1,-2.3,-2.3,-2.3c-1.3,0,-2.4,1,-2.4,2.3"
     class="g1_1"
     id="path316" />
  <path
     d="M446.2,950.2c0.1,1.2,1.2,2.3,2.5,2.3c1.3,0,2.3,-1.1,2.3,-2.4c0,-1.3,-1,-2.3,-2.3,-2.3c-1.3,0,-2.4,1,-2.4,2.3"
     class="g1_1"
     id="path318" />
  <path
     d="M458,950.2c0,1.2,1.1,2.3,2.4,2.3c1.3,0,2.3,-1.1,2.3,-2.4c0,-1.3,-1,-2.3,-2.3,-2.3c-1.3,0,-2.4,1,-2.4,2.3"
     class="g1_1"
     id="path320" />
  <path
     d="M469.7,950.2c0,1.2,1.1,2.3,2.4,2.3c1.3,0,2.3,-1.1,2.3,-2.4c0,-1.3,-1,-2.3,-2.3,-2.3c-1.3,0,-2.4,1,-2.4,2.3"
     class="g1_1"
     id="path322" />
  <path
     d="M481.4,950.2c0,1.2,1.1,2.3,2.4,2.3c1.3,0,2.3,-1.1,2.3,-2.4c0,-1.3,-1,-2.3,-2.3,-2.3c-1.3,0,-2.4,1,-2.4,2.3"
     class="g1_1"
     id="path324" />
  <path
     d="M493,950.2c0.1,1.2,1.2,2.3,2.5,2.3c1.3,0,2.3,-1.1,2.3,-2.4c0,-1.3,-1,-2.3,-2.3,-2.3c-1.3,0,-2.4,1,-2.4,2.3"
     class="g1_1"
     id="path326" />
  <path
     d="M504.7,950.2c0.1,1.2,1.2,2.3,2.5,2.3c1.3,0,2.3,-1.1,2.3,-2.4c0,-1.3,-1,-2.3,-2.3,-2.3c-1.3,0,-2.4,1,-2.4,2.3"
     class="g1_1"
     id="path328" />
  <path
     d="M516.5,950.2c0,1.2,1.1,2.3,2.4,2.3c1.3,0,2.3,-1.1,2.3,-2.4c0,-1.3,-1,-2.3,-2.3,-2.3c-1.3,0,-2.4,1,-2.4,2.3"
     class="g1_1"
     id="path330" />
  <path
     d="M528.2,950.2c0,1.2,1.1,2.3,2.4,2.3c1.3,0,2.3,-1.1,2.3,-2.4c0,-1.3,-1,-2.3,-2.3,-2.3c-1.3,0,-2.4,1,-2.4,2.3"
     class="g1_1"
     id="path332" />
  <path
     d="M539.9,950.2c0,1.2,1.1,2.3,2.4,2.3c1.3,0,2.3,-1.1,2.3,-2.4c0,-1.3,-1,-2.3,-2.3,-2.3c-1.3,0,-2.4,1,-2.4,2.3"
     class="g1_1"
     id="path334" />
  <path
     d="M551.5,950.2c0.1,1.2,1.2,2.3,2.5,2.3c1.3,0,2.3,-1.1,2.3,-2.4c0,-1.3,-1,-2.3,-2.3,-2.3c-1.3,0,-2.4,1,-2.4,2.3"
     class="g1_1"
     id="path336" />
  <path
     d="M352.7,961.9c0,1.2,1.1,2.3,2.4,2.3c1.3,0,2.3,-1.1,2.3,-2.4c0,-1.3,-1,-2.3,-2.3,-2.3c-1.3,0,-2.4,1,-2.4,2.3"
     class="g1_1"
     id="path338" />
  <path
     d="M364.3,961.9c0.1,1.2,1.2,2.3,2.5,2.3c1.3,0,2.3,-1.1,2.3,-2.4c0,-1.3,-1,-2.3,-2.3,-2.3c-1.3,0,-2.4,1,-2.4,2.3"
     class="g1_1"
     id="path340" />
  <path
     d="M376,961.9c0.1,1.2,1.2,2.3,2.5,2.3c1.3,0,2.3,-1.1,2.3,-2.4c0,-1.3,-1,-2.3,-2.3,-2.3c-1.3,0,-2.4,1,-2.4,2.3"
     class="g1_1"
     id="path342" />
  <path
     d="M387.8,961.9c0,1.2,1.1,2.3,2.4,2.3c1.3,0,2.3,-1.1,2.3,-2.4c0,-1.3,-1,-2.3,-2.3,-2.3c-1.3,0,-2.4,1,-2.4,2.3"
     class="g1_1"
     id="path344" />
  <path
     d="M399.5,961.9c0,1.2,1.1,2.3,2.4,2.3c1.3,0,2.3,-1.1,2.3,-2.4c0,-1.3,-1,-2.3,-2.3,-2.3c-1.3,0,-2.4,1,-2.4,2.3"
     class="g1_1"
     id="path346" />
  <path
     d="M411.2,961.9c0,1.2,1.1,2.3,2.4,2.3c1.3,0,2.3,-1.1,2.3,-2.4c0,-1.3,-1,-2.3,-2.3,-2.3c-1.3,0,-2.4,1,-2.4,2.3"
     class="g1_1"
     id="path348" />
  <path
     d="M422.8,961.9c0.1,1.2,1.2,2.3,2.5,2.3c1.3,0,2.3,-1.1,2.3,-2.4c0,-1.3,-1,-2.3,-2.3,-2.3c-1.3,0,-2.4,1,-2.4,2.3"
     class="g1_1"
     id="path350" />
  <path
     d="M434.5,961.9c0.1,1.2,1.2,2.3,2.5,2.3c1.3,0,2.3,-1.1,2.3,-2.4c0,-1.3,-1,-2.3,-2.3,-2.3c-1.3,0,-2.4,1,-2.4,2.3"
     class="g1_1"
     id="path352" />
  <path
     d="M446.2,961.9c0.1,1.2,1.2,2.3,2.5,2.3c1.3,0,2.3,-1.1,2.3,-2.4c0,-1.3,-1,-2.3,-2.3,-2.3c-1.3,0,-2.4,1,-2.4,2.3"
     class="g1_1"
     id="path354" />
  <path
     d="M458,961.9c0,1.2,1.1,2.3,2.4,2.3c1.3,0,2.3,-1.1,2.3,-2.4c0,-1.3,-1,-2.3,-2.3,-2.3c-1.3,0,-2.4,1,-2.4,2.3"
     class="g1_1"
     id="path356" />
  <path
     d="M469.7,961.9c0,1.2,1.1,2.3,2.4,2.3c1.3,0,2.3,-1.1,2.3,-2.4c0,-1.3,-1,-2.3,-2.3,-2.3c-1.3,0,-2.4,1,-2.4,2.3"
     class="g1_1"
     id="path358" />
  <path
     d="M481.4,961.9c0,1.2,1.1,2.3,2.4,2.3c1.3,0,2.3,-1.1,2.3,-2.4c0,-1.3,-1,-2.3,-2.3,-2.3c-1.3,0,-2.4,1,-2.4,2.3"
     class="g1_1"
     id="path360" />
  <path
     d="M493,961.9c0.1,1.2,1.2,2.3,2.5,2.3c1.3,0,2.3,-1.1,2.3,-2.4c0,-1.3,-1,-2.3,-2.3,-2.3c-1.3,0,-2.4,1,-2.4,2.3"
     class="g1_1"
     id="path362" />
  <path
     d="M504.7,961.9c0.1,1.2,1.2,2.3,2.5,2.3c1.3,0,2.3,-1.1,2.3,-2.4c0,-1.3,-1,-2.3,-2.3,-2.3c-1.3,0,-2.4,1,-2.4,2.3"
     class="g1_1"
     id="path364" />
  <path
     d="M516.5,961.9c0,1.2,1.1,2.3,2.4,2.3c1.3,0,2.3,-1.1,2.3,-2.4c0,-1.3,-1,-2.3,-2.3,-2.3c-1.3,0,-2.4,1,-2.4,2.3"
     class="g1_1"
     id="path366" />
  <path
     d="M528.2,961.9c0,1.2,1.1,2.3,2.4,2.3c1.3,0,2.3,-1.1,2.3,-2.4c0,-1.3,-1,-2.3,-2.3,-2.3c-1.3,0,-2.4,1,-2.4,2.3"
     class="g1_1"
     id="path368" />
  <path
     d="M539.9,961.9c0,1.2,1.1,2.3,2.4,2.3c1.3,0,2.3,-1.1,2.3,-2.4c0,-1.3,-1,-2.3,-2.3,-2.3c-1.3,0,-2.4,1,-2.4,2.3"
     class="g1_1"
     id="path370" />
  <path
     d="M551.5,961.9c0.1,1.2,1.2,2.3,2.5,2.3c1.3,0,2.3,-1.1,2.3,-2.4c0,-1.3,-1,-2.3,-2.3,-2.3c-1.3,0,-2.4,1,-2.4,2.3"
     class="g1_1"
     id="path372" />
  <path
     d="M352.7,973.6c0,1.2,1.1,2.3,2.4,2.3c1.3,0,2.3,-1.1,2.3,-2.4c0,-1.3,-1,-2.3,-2.3,-2.3c-1.3,0,-2.4,1,-2.4,2.3"
     class="g1_1"
     id="path374" />
  <path
     d="M364.3,973.6c0.1,1.2,1.2,2.3,2.5,2.3c1.3,0,2.3,-1.1,2.3,-2.4c0,-1.3,-1,-2.3,-2.3,-2.3c-1.3,0,-2.4,1,-2.4,2.3"
     class="g1_1"
     id="path376" />
  <path
     d="M376,973.6c0.1,1.2,1.2,2.3,2.5,2.3c1.3,0,2.3,-1.1,2.3,-2.4c0,-1.3,-1,-2.3,-2.3,-2.3c-1.3,0,-2.4,1,-2.4,2.3"
     class="g1_1"
     id="path378" />
  <path
     d="M387.8,973.6c0,1.2,1.1,2.3,2.4,2.3c1.3,0,2.3,-1.1,2.3,-2.4c0,-1.3,-1,-2.3,-2.3,-2.3c-1.3,0,-2.4,1,-2.4,2.3"
     class="g1_1"
     id="path380" />
  <path
     d="M399.5,973.6c0,1.2,1.1,2.3,2.4,2.3c1.3,0,2.3,-1.1,2.3,-2.4c0,-1.3,-1,-2.3,-2.3,-2.3c-1.3,0,-2.4,1,-2.4,2.3"
     class="g1_1"
     id="path382" />
  <path
     d="M411.2,973.6c0,1.2,1.1,2.3,2.4,2.3c1.3,0,2.3,-1.1,2.3,-2.4c0,-1.3,-1,-2.3,-2.3,-2.3c-1.3,0,-2.4,1,-2.4,2.3"
     class="g1_1"
     id="path384" />
  <path
     d="M422.8,973.6c0.1,1.2,1.2,2.3,2.5,2.3c1.3,0,2.3,-1.1,2.3,-2.4c0,-1.3,-1,-2.3,-2.3,-2.3c-1.3,0,-2.4,1,-2.4,2.3"
     class="g1_1"
     id="path386" />
  <path
     d="M434.5,973.6c0.1,1.2,1.2,2.3,2.5,2.3c1.3,0,2.3,-1.1,2.3,-2.4c0,-1.3,-1,-2.3,-2.3,-2.3c-1.3,0,-2.4,1,-2.4,2.3"
     class="g1_1"
     id="path388" />
  <path
     d="M446.2,973.6c0.1,1.2,1.2,2.3,2.5,2.3c1.3,0,2.3,-1.1,2.3,-2.4c0,-1.3,-1,-2.3,-2.3,-2.3c-1.3,0,-2.4,1,-2.4,2.3"
     class="g1_1"
     id="path390" />
  <path
     d="M458,973.6c0,1.2,1.1,2.3,2.4,2.3c1.3,0,2.3,-1.1,2.3,-2.4c0,-1.3,-1,-2.3,-2.3,-2.3c-1.3,0,-2.4,1,-2.4,2.3"
     class="g1_1"
     id="path392" />
  <path
     d="M469.7,973.6c0,1.2,1.1,2.3,2.4,2.3c1.3,0,2.3,-1.1,2.3,-2.4c0,-1.3,-1,-2.3,-2.3,-2.3c-1.3,0,-2.4,1,-2.4,2.3"
     class="g1_1"
     id="path394" />
  <path
     d="M481.4,973.6c0,1.2,1.1,2.3,2.4,2.3c1.3,0,2.3,-1.1,2.3,-2.4c0,-1.3,-1,-2.3,-2.3,-2.3c-1.3,0,-2.4,1,-2.4,2.3"
     class="g1_1"
     id="path396" />
  <path
     d="M493,973.6c0.1,1.2,1.2,2.3,2.5,2.3c1.3,0,2.3,-1.1,2.3,-2.4c0,-1.3,-1,-2.3,-2.3,-2.3c-1.3,0,-2.4,1,-2.4,2.3"
     class="g1_1"
     id="path398" />
  <path
     d="M504.7,973.6c0.1,1.2,1.2,2.3,2.5,2.3c1.3,0,2.3,-1.1,2.3,-2.4c0,-1.3,-1,-2.3,-2.3,-2.3c-1.3,0,-2.4,1,-2.4,2.3"
     class="g1_1"
     id="path400" />
  <path
     d="M516.5,973.6c0,1.2,1.1,2.3,2.4,2.3c1.3,0,2.3,-1.1,2.3,-2.4c0,-1.3,-1,-2.3,-2.3,-2.3c-1.3,0,-2.4,1,-2.4,2.3"
     class="g1_1"
     id="path402" />
  <path
     d="M528.2,973.6c0,1.2,1.1,2.3,2.4,2.3c1.3,0,2.3,-1.1,2.3,-2.4c0,-1.3,-1,-2.3,-2.3,-2.3c-1.3,0,-2.4,1,-2.4,2.3"
     class="g1_1"
     id="path404" />
  <path
     d="M539.9,973.6c0,1.2,1.1,2.3,2.4,2.3c1.3,0,2.3,-1.1,2.3,-2.4c0,-1.3,-1,-2.3,-2.3,-2.3c-1.3,0,-2.4,1,-2.4,2.3"
     class="g1_1"
     id="path406" />
  <path
     d="M551.5,973.6c0.1,1.2,1.2,2.3,2.5,2.3c1.3,0,2.3,-1.1,2.3,-2.4c0,-1.3,-1,-2.3,-2.3,-2.3c-1.3,0,-2.4,1,-2.4,2.3"
     class="g1_1"
     id="path408" />
  <path
     d="M352.7,985.4c0,1.1,1.1,2.2,2.4,2.2c1.3,0,2.3,-1.1,2.3,-2.4c0,-1.3,-1,-2.3,-2.3,-2.3c-1.3,0,-2.4,1,-2.4,2.3"
     class="g1_1"
     id="path410" />
  <path
     d="M364.3,985.4c0.1,1.1,1.2,2.2,2.5,2.2c1.3,0,2.3,-1.1,2.3,-2.4c0,-1.3,-1,-2.3,-2.3,-2.3c-1.3,0,-2.4,1,-2.4,2.3"
     class="g1_1"
     id="path412" />
  <path
     d="M376,985.4c0.1,1.1,1.2,2.2,2.5,2.2c1.3,0,2.3,-1.1,2.3,-2.4c0,-1.3,-1,-2.3,-2.3,-2.3c-1.3,0,-2.4,1,-2.4,2.3"
     class="g1_1"
     id="path414" />
  <path
     d="M387.8,985.4c0,1.1,1.1,2.2,2.4,2.2c1.3,0,2.3,-1.1,2.3,-2.4c0,-1.3,-1,-2.3,-2.3,-2.3c-1.3,0,-2.4,1,-2.4,2.3"
     class="g1_1"
     id="path416" />
  <path
     d="M399.5,985.4c0,1.1,1.1,2.2,2.4,2.2c1.3,0,2.3,-1.1,2.3,-2.4c0,-1.3,-1,-2.3,-2.3,-2.3c-1.3,0,-2.4,1,-2.4,2.3"
     class="g1_1"
     id="path418" />
  <path
     d="M411.2,985.4c0,1.1,1.1,2.2,2.4,2.2c1.3,0,2.3,-1.1,2.3,-2.4c0,-1.3,-1,-2.3,-2.3,-2.3c-1.3,0,-2.4,1,-2.4,2.3"
     class="g1_1"
     id="path420" />
  <path
     d="M422.8,985.4c0.1,1.1,1.2,2.2,2.5,2.2c1.3,0,2.3,-1.1,2.3,-2.4c0,-1.3,-1,-2.3,-2.3,-2.3c-1.3,0,-2.4,1,-2.4,2.3"
     class="g1_1"
     id="path422" />
  <path
     d="M434.5,985.4c0.1,1.1,1.2,2.2,2.5,2.2c1.3,0,2.3,-1.1,2.3,-2.4c0,-1.3,-1,-2.3,-2.3,-2.3c-1.3,0,-2.4,1,-2.4,2.3"
     class="g1_1"
     id="path424" />
  <path
     d="M446.2,985.4c0.1,1.1,1.2,2.2,2.5,2.2c1.3,0,2.3,-1.1,2.3,-2.4c0,-1.3,-1,-2.3,-2.3,-2.3c-1.3,0,-2.4,1,-2.4,2.3"
     class="g1_1"
     id="path426" />
  <path
     d="M458,985.4c0,1.1,1.1,2.2,2.4,2.2c1.3,0,2.3,-1.1,2.3,-2.4c0,-1.3,-1,-2.3,-2.3,-2.3c-1.3,0,-2.4,1,-2.4,2.3"
     class="g1_1"
     id="path428" />
  <path
     d="M469.7,985.4c0,1.1,1.1,2.2,2.4,2.2c1.3,0,2.3,-1.1,2.3,-2.4c0,-1.3,-1,-2.3,-2.3,-2.3c-1.3,0,-2.4,1,-2.4,2.3"
     class="g1_1"
     id="path430" />
  <path
     d="M481.4,985.4c0,1.1,1.1,2.2,2.4,2.2c1.3,0,2.3,-1.1,2.3,-2.4c0,-1.3,-1,-2.3,-2.3,-2.3c-1.3,0,-2.4,1,-2.4,2.3"
     class="g1_1"
     id="path432" />
  <path
     d="M493,985.4c0.1,1.1,1.2,2.2,2.5,2.2c1.3,0,2.3,-1.1,2.3,-2.4c0,-1.3,-1,-2.3,-2.3,-2.3c-1.3,0,-2.4,1,-2.4,2.3"
     class="g1_1"
     id="path434" />
  <path
     d="M504.7,985.4c0.1,1.1,1.2,2.2,2.5,2.2c1.3,0,2.3,-1.1,2.3,-2.4c0,-1.3,-1,-2.3,-2.3,-2.3c-1.3,0,-2.4,1,-2.4,2.3"
     class="g1_1"
     id="path436" />
  <path
     d="M516.5,985.4c0,1.1,1.1,2.2,2.4,2.2c1.3,0,2.3,-1.1,2.3,-2.4c0,-1.3,-1,-2.3,-2.3,-2.3c-1.3,0,-2.4,1,-2.4,2.3"
     class="g1_1"
     id="path438" />
  <path
     d="M528.2,985.4c0,1.1,1.1,2.2,2.4,2.2c1.3,0,2.3,-1.1,2.3,-2.4c0,-1.3,-1,-2.3,-2.3,-2.3c-1.3,0,-2.4,1,-2.4,2.3"
     class="g1_1"
     id="path440" />
  <path
     d="M539.9,985.4c0,1.1,1.1,2.2,2.4,2.2c1.3,0,2.3,-1.1,2.3,-2.4c0,-1.3,-1,-2.3,-2.3,-2.3c-1.3,0,-2.4,1,-2.4,2.3"
     class="g1_1"
     id="path442" />
  <path
     d="M551.5,985.4c0.1,1.1,1.2,2.2,2.5,2.2c1.3,0,2.3,-1.1,2.3,-2.4c0,-1.3,-1,-2.3,-2.3,-2.3c-1.3,0,-2.4,1,-2.4,2.3"
     class="g1_1"
     id="path444" />
  <path
     d="M570,999l145,0l0,-703l-145,0l0,703Z"
     class="g1_1"
     id="path446" />
  <path
     d="M191,999l145,0l0,-703l-145,0l0,703Z"
     class="g1_1"
     id="path448" />
  <path
     d="M348,291l211,0l0,-145l-211,0l0,145Z"
     class="g1_1"
     id="path450" />
  <path
     d="M447.2,819.4c0.1,3.7,3.1,6.7,6.8,6.7c3.7,0,6.7,-3,6.7,-6.7c0,-3.7,-3,-6.7,-6.7,-6.7c-3.7,0,-6.7,3,-6.7,6.7"
     class="g1_1"
     id="path452" />
  <path
     d="M446,1140l0,-7"
     class="g1_1"
     id="path454" />
  <path
     d="M447,1133.5c0,-4,3.1,-7.1,7,-7.1c3.9,0,7,3.1,7,7"
     class="g1_1"
     id="path456" />
  <path
     d="M460,1133l0,7l99,0l0,-136l-211,0l0,136l98,0"
     class="g1_1"
     id="path458" />
  <path
     d="M1517,993l0,-7"
     class="g1_1"
     id="path460" />
  <path
     d="M1517.6,986.1c0.1,-4,3.2,-7.1,7.1,-7.1c3.9,0,7,3.1,7,7"
     class="g1_1"
     id="path462" />
  <path
     d="M1531,986l0,7l96,0l0,-691l-206,0l0,691l96,0"
     class="g1_1"
     id="path464" />
  <path
     d="M1530,421l0,-11"
     class="g1_1"
     id="path466" />
  <path
     d="M1530.5,410.1c0,-3.4,-2.6,-6,-5.8,-6c-3.2,0,-5.9,2.6,-5.9,5.8"
     class="g1_1"
     id="path468" />
  <path
     d="M1518,410l0,11"
     class="g1_1"
     id="path470" />
  <path
     d="M1518.7,421.4c-3.9,3.2,-4.5,9,-1.3,13.1c3.2,4,9.1,4.7,13.1,1.4c4.1,-3.2,4.7,-9.1,1.5,-13.1c-0.4,-0.6,-0.9,-1,-1.5,-1.5"
     class="g1_1"
     id="path472" />
  <path
     d="M1501.1,826.4c0.2,12.9,10.7,23.4,23.6,23.4c12.9,0,23.4,-10.5,23.4,-23.4c0,-12.9,-10.5,-23.4,-23.4,-23.4c-12.9,0,-23.4,10.5,-23.4,23.4"
     class="g1_1"
     id="path474" />
  <path
     d="M223.5,327.6c0,-2.1,1.6,-3.7,3.5,-3.7c2,0,3.5,1.6,3.5,3.5"
     class="g1_1"
     id="path476" />
  <path
     d="M230,327l0,47l0,47"
     class="g1_1"
     id="path478" />
  <path
     d="M230.5,421.1c0,1.8,-1.5,3.4,-3.5,3.4c-1.9,0,-3.5,-1.6,-3.5,-3.5"
     class="g1_1"
     id="path480" />
  <path
     d="M223,421l0,-47l0,-47"
     class="g1_1"
     id="path482" />
  <path
     d="m 636.91192,673.82172 14.35254,0 0,-30.29742 -14.35254,0 0,30.29742 z"
     class="g1_1"
     id="path484"
     inkscape:connector-curvature="0"
     style="fill:none;stroke:#000000;stroke-width:1.59233809;stroke-linecap:round;stroke-linejoin:round" />
  <path
     d="M1199,993l211,0l0,-691l-211,0l0,691Z"
     class="g1_1"
     id="path486" />
  <path
     d="M1213,979l182,0l0,-663l-182,0l0,663Z"
     class="g1_1"
     id="path488" />
  <path
     d="M773.5,400.2c0,36.5,29.7,66.2,66.3,66.2c36.7,0,66.4,-29.7,66.4,-66.3c0,-36.6,-29.7,-66.3,-66.4,-66.3c-36.6,0,-66.3,29.7,-66.3,66.3"
     class="g1_1"
     id="path490" />
  <path
     d="M752,400.2c0.1,48.3,39.4,87.6,87.8,87.6c48.5,0,87.8,-39.3,87.8,-87.7c0,-48.5,-39.3,-87.8,-87.8,-87.8c-48.4,0,-87.7,39.3,-87.7,87.8"
     class="g1_1"
     id="path492" />
  <path
     d="M242.2,327.6c0,-2.1,1.6,-3.7,3.5,-3.7c2,0,3.6,1.6,3.6,3.5"
     class="g1_1"
     id="path494" />
  <path
     d="M249,327l0,47l0,47"
     class="g1_1"
     id="path496" />
  <path
     d="M249.2,421.1c0.1,1.8,-1.5,3.4,-3.5,3.4c-1.9,0,-3.5,-1.6,-3.5,-3.5"
     class="g1_1"
     id="path498" />
  <path
     d="M242,421l0,-47l0,-47"
     class="g1_1"
     id="path500" />
  <path
     d="M260.9,327.6c0.1,-2.1,1.6,-3.7,3.6,-3.7c1.9,0,3.5,1.6,3.5,3.5"
     class="g1_1"
     id="path502" />
  <path
     d="M267,327l0,47l0,47"
     class="g1_1"
     id="path504" />
  <path
     d="M267.9,421.1c0.1,1.8,-1.5,3.4,-3.4,3.4c-2,0,-3.5,-1.6,-3.5,-3.5"
     class="g1_1"
     id="path506" />
  <path
     d="M260,421l0,-47l0,-47"
     class="g1_1"
     id="path508" />
  <path
     d="M279.6,327.6c0.1,-2.1,1.6,-3.7,3.6,-3.7c1.9,0,3.5,1.6,3.5,3.5"
     class="g1_1"
     id="path510" />
  <path
     d="M286,327l0,47l0,47"
     class="g1_1"
     id="path512" />
  <path
     d="M286.6,421.1c0.1,1.8,-1.5,3.4,-3.4,3.4c-2,0,-3.5,-1.6,-3.5,-3.5"
     class="g1_1"
     id="path514" />
  <path
     d="M279,421l0,-47l0,-47"
     class="g1_1"
     id="path516" />
  <path
     d="M298.3,327.6c0.1,-2.1,1.7,-3.7,3.6,-3.7c1.9,0,3.5,1.6,3.5,3.5"
     class="g1_1"
     id="path518" />
  <path
     d="M305,327l0,47l0,47"
     class="g1_1"
     id="path520" />
  <path
     d="M305.3,421.1c0.1,1.8,-1.5,3.4,-3.4,3.4c-1.9,0,-3.5,-1.6,-3.5,-3.5"
     class="g1_1"
     id="path522" />
  <path
     d="M298,421l0,-47l0,-47"
     class="g1_1"
     id="path524" />
  <path
     d="M602.4,326.5c0.2,-2.1,1.7,-3.6,3.7,-3.6c1.9,0,3.5,1.5,3.5,3.5"
     class="g1_1"
     id="path526" />
  <path
     d="M609,326l0,47l0,47"
     class="g1_1"
     id="path528" />
  <path
     d="M609.6,420.1c0,1.8,-1.6,3.4,-3.5,3.4c-2,0,-3.5,-1.6,-3.5,-3.5"
     class="g1_1"
     id="path530" />
  <path
     d="M602,420l0,-47l0,-47"
     class="g1_1"
     id="path532" />
  <path
     d="M621.1,326.5c0.2,-2.1,1.8,-3.6,3.7,-3.6c1.9,0,3.5,1.5,3.5,3.5"
     class="g1_1"
     id="path534" />
  <path
     d="M628,326l0,47l0,47"
     class="g1_1"
     id="path536" />
  <path
     d="M628.3,420.1c0,1.8,-1.6,3.4,-3.5,3.4c-1.9,0,-3.5,-1.6,-3.5,-3.5"
     class="g1_1"
     id="path538" />
  <path
     d="M621,420l0,-47l0,-47"
     class="g1_1"
     id="path540" />
  <path
     d="M639.8,326.5c0.2,-2.1,1.8,-3.6,3.7,-3.6c2,0,3.5,1.5,3.5,3.5"
     class="g1_1"
     id="path542" />
  <path
     d="M646,326l0,47l0,47"
     class="g1_1"
     id="path544" />
  <path
     d="M647,420.1c0,1.8,-1.5,3.4,-3.5,3.4c-1.9,0,-3.5,-1.6,-3.5,-3.5"
     class="g1_1"
     id="path546" />
  <path
     d="M639,420l0,-47l0,-47"
     class="g1_1"
     id="path548" />
  <path
     d="M658.7,326.5c0,-2.1,1.6,-3.6,3.5,-3.6c2,0,3.5,1.5,3.5,3.5"
     class="g1_1"
     id="path550" />
  <path
     d="M665,326l0,47l0,47"
     class="g1_1"
     id="path552" />
  <path
     d="M665.7,420.1c0,1.8,-1.5,3.4,-3.5,3.4c-1.9,0,-3.5,-1.6,-3.5,-3.5"
     class="g1_1"
     id="path554" />
  <path
     d="M658,420l0,-47l0,-47"
     class="g1_1"
     id="path556" />
  <path
     d="M677.4,326.5c0,-2.1,1.6,-3.6,3.6,-3.6c1.9,0,3.5,1.5,3.5,3.5"
     class="g1_1"
     id="path558" />
  <path
     d="M684,326l0,47l0,47"
     class="g1_1"
     id="path560" />
  <path
     d="M684.4,420.1c0.1,1.8,-1.5,3.4,-3.4,3.4c-2,0,-3.6,-1.6,-3.6,-3.5"
     class="g1_1"
     id="path562" />
  <path
     d="M677,420l0,-47l0,-47"
     class="g1_1"
     id="path564" />
  <path
     d="M223.5,968.9c0,1.8,1.6,3.4,3.5,3.4c2,0,3.5,-1.6,3.5,-3.5"
     class="g1_1"
     id="path566" />
  <path
     d="M230,968l0,-46l0,-47"
     class="g1_1"
     id="path568" />
  <path
     d="M230.5,875.4c0,-2.1,-1.5,-3.7,-3.5,-3.7c-1.9,0,-3.5,1.6,-3.5,3.5"
     class="g1_1"
     id="path570" />
  <path
     d="M223,875l0,47l0,46"
     class="g1_1"
     id="path572" />
  <path
     d="M242.2,968.9c0,1.8,1.6,3.4,3.5,3.4c2,0,3.6,-1.6,3.6,-3.5"
     class="g1_1"
     id="path574" />
  <path
     d="M249,968l0,-46l0,-47"
     class="g1_1"
     id="path576" />
  <path
     d="M249.2,875.4c0.1,-2.1,-1.5,-3.7,-3.5,-3.7c-1.9,0,-3.5,1.6,-3.5,3.5"
     class="g1_1"
     id="path578" />
  <path
     d="M242,875l0,47l0,46"
     class="g1_1"
     id="path580" />
  <path
     d="M260.9,968.9c0.1,1.8,1.6,3.4,3.6,3.4c1.9,0,3.5,-1.6,3.5,-3.5"
     class="g1_1"
     id="path582" />
  <path
     d="M267,968l0,-46l0,-47"
     class="g1_1"
     id="path584" />
  <path
     d="M267.9,875.4c0.1,-2.1,-1.5,-3.7,-3.4,-3.7c-2,0,-3.5,1.6,-3.5,3.5"
     class="g1_1"
     id="path586" />
  <path
     d="M260,875l0,47l0,46"
     class="g1_1"
     id="path588" />
  <path
     d="M279.6,968.9c0.1,1.8,1.6,3.4,3.6,3.4c1.9,0,3.5,-1.6,3.5,-3.5"
     class="g1_1"
     id="path590" />
  <path
     d="M286,968l0,-46l0,-47"
     class="g1_1"
     id="path592" />
  <path
     d="M286.6,875.4c0.1,-2.1,-1.5,-3.7,-3.4,-3.7c-2,0,-3.5,1.6,-3.5,3.5"
     class="g1_1"
     id="path594" />
  <path
     d="M279,875l0,47l0,46"
     class="g1_1"
     id="path596" />
  <path
     d="M298.3,968.9c0.1,1.8,1.7,3.4,3.6,3.4c1.9,0,3.5,-1.6,3.5,-3.5"
     class="g1_1"
     id="path598" />
  <path
     d="M305,968l0,-46l0,-47"
     class="g1_1"
     id="path600" />
  <path
     d="M305.3,875.4c0.1,-2.1,-1.5,-3.7,-3.4,-3.7c-1.9,0,-3.5,1.6,-3.5,3.5"
     class="g1_1"
     id="path602" />
  <path
     d="M298,875l0,47l0,46"
     class="g1_1"
     id="path604" />
  <path
     d="M602.4,970c0.2,1.8,1.7,3.3,3.7,3.3c1.9,0,3.5,-1.5,3.5,-3.5"
     class="g1_1"
     id="path606" />
  <path
     d="M609,969l0,-46l0,-47"
     class="g1_1"
     id="path608" />
  <path
     d="M609.6,876.3c0,-2,-1.6,-3.6,-3.5,-3.6c-2,0,-3.5,1.6,-3.5,3.5"
     class="g1_1"
     id="path610" />
  <path
     d="M602,876l0,47l0,46"
     class="g1_1"
     id="path612" />
  <path
     d="M621.1,970c0.2,1.8,1.8,3.3,3.7,3.3c1.9,0,3.5,-1.5,3.5,-3.5"
     class="g1_1"
     id="path614" />
  <path
     d="M628,969l0,-46l0,-47"
     class="g1_1"
     id="path616" />
  <path
     d="M628.3,876.3c0,-2,-1.6,-3.6,-3.5,-3.6c-1.9,0,-3.5,1.6,-3.5,3.5"
     class="g1_1"
     id="path618" />
  <path
     d="M621,876l0,47l0,46"
     class="g1_1"
     id="path620" />
  <path
     d="M639.8,970c0.2,1.8,1.8,3.3,3.7,3.3c2,0,3.5,-1.5,3.5,-3.5"
     class="g1_1"
     id="path622" />
  <path
     d="M646,969l0,-46l0,-47"
     class="g1_1"
     id="path624" />
  <path
     d="M647,876.3c0,-2,-1.5,-3.6,-3.5,-3.6c-1.9,0,-3.5,1.6,-3.5,3.5"
     class="g1_1"
     id="path626" />
  <path
     d="M639,876l0,47l0,46"
     class="g1_1"
     id="path628" />
  <path
     d="M658.7,970c0,1.8,1.6,3.3,3.5,3.3c2,0,3.5,-1.5,3.5,-3.5"
     class="g1_1"
     id="path630" />
  <path
     d="M665,969l0,-46l0,-47"
     class="g1_1"
     id="path632" />
  <path
     d="M665.7,876.3c0,-2,-1.5,-3.6,-3.5,-3.6c-1.9,0,-3.5,1.6,-3.5,3.5"
     class="g1_1"
     id="path634" />
  <path
     d="M658,876l0,47l0,46"
     class="g1_1"
     id="path636" />
  <path
     d="M677.4,970c0,1.8,1.6,3.3,3.6,3.3c1.9,0,3.5,-1.5,3.5,-3.5"
     class="g1_1"
     id="path638" />
  <path
     d="M684,969l0,-46l0,-47"
     class="g1_1"
     id="path640" />
  <path
     d="M684.4,876.3c0.1,-2,-1.5,-3.6,-3.4,-3.6c-2,0,-3.6,1.6,-3.6,3.5"
     class="g1_1"
     id="path642" />
  <path
     d="M677,876l0,47l0,46"
     class="g1_1"
     id="path644" />
  <path
     d="M963,999l224,0l0,-703l-224,0l0,703Z"
     class="g1_1"
     id="path646" />
  <path
     d="M984,979l182,0l0,-663l-182,0l0,663Z"
     class="g1_1"
     id="path648" />
  <path
     d="M727,999l224,0l0,-703l-224,0l0,703Z"
     class="g1_1"
     id="path650" />
  <path
     d="M737,853l0,137l205,0l0,-137"
     class="g1_1"
     id="path652" />
  <path
     d="M942,843l-205,0"
     class="g1_1"
     id="path654" />
  <path
     d="M942,853l-205,0"
     class="g1_1"
     id="path656" />
  <path
     d="M942,843l0,-538l-205,0l0,538"
     class="g1_1"
     id="path658" />
  <path
     d="M494.8,171.7c0.1,-1.9,-1.4,-3.5,-3.4,-3.5c-1.9,0,-3.5,1.6,-3.5,3.5"
     class="g1_1"
     id="path660" />
  <path
     d="M487,171l0,47l0,47"
     class="g1_1"
     id="path662" />
  <path
     d="M487.9,265.4c0,1.9,1.6,3.4,3.5,3.4c2,0,3.5,-1.5,3.5,-3.5"
     class="g1_1"
     id="path664" />
  <path
     d="M494,265l0,-47l0,-47"
     class="g1_1"
     id="path666" />
  <path
     d="M476.1,171.7c0.1,-1.9,-1.4,-3.5,-3.4,-3.5c-1.9,0,-3.5,1.6,-3.5,3.5"
     class="g1_1"
     id="path668" />
  <path
     d="M469,171l0,47l0,47"
     class="g1_1"
     id="path670" />
  <path
     d="M469.2,265.4c0,1.9,1.6,3.4,3.5,3.4c2,0,3.5,-1.5,3.5,-3.5"
     class="g1_1"
     id="path672" />
  <path
     d="M476,265l0,-47l0,-47"
     class="g1_1"
     id="path674" />
  <path
     d="M457.4,171.7c0.1,-1.9,-1.5,-3.5,-3.4,-3.5c-1.9,0,-3.5,1.6,-3.5,3.5"
     class="g1_1"
     id="path676" />
  <path
     d="M450,171l0,47l0,47"
     class="g1_1"
     id="path678" />
  <path
     d="M450.5,265.4c0,1.9,1.6,3.4,3.5,3.4c1.9,0,3.5,-1.5,3.5,-3.5"
     class="g1_1"
     id="path680" />
  <path
     d="M457,265l0,-47l0,-47"
     class="g1_1"
     id="path682" />
  <path
     d="M438.7,171.7c0.1,-1.9,-1.5,-3.5,-3.4,-3.5c-2,0,-3.5,1.6,-3.5,3.5"
     class="g1_1"
     id="path684" />
  <path
     d="M431,171l0,47l0,47"
     class="g1_1"
     id="path686" />
  <path
     d="M431.8,265.4c0,1.9,1.5,3.4,3.5,3.4c1.9,0,3.5,-1.5,3.5,-3.5"
     class="g1_1"
     id="path688" />
  <path
     d="M438,265l0,-47l0,-47"
     class="g1_1"
     id="path690" />
  <path
     d="M420,171.7c0.1,-1.9,-1.5,-3.5,-3.4,-3.5c-2,0,-3.6,1.6,-3.6,3.5"
     class="g1_1"
     id="path692" />
  <path
     d="M412,171l0,47l0,47"
     class="g1_1"
     id="path694" />
  <path
     d="M412.9,265.4c0.1,1.9,1.7,3.4,3.7,3.4c1.9,0,3.5,-1.5,3.5,-3.5"
     class="g1_1"
     id="path696" />
  <path
     d="M420,265l0,-47l0,-47"
     class="g1_1"
     id="path698" />
  <path
     d="M460,1273l99,0l0,-121l-211,0l0,121l98,0"
     class="g1_1"
     id="path700" />
  <path
     d="M447,1273.9c0,-4,3.1,-7.1,7,-7.1c3.9,0,7,3.1,7,7"
     class="g1_1"
     id="path702" />
  <path
     d="M348,134l211,0L559,12L348,12l0,122Z"
     class="g1_1"
     id="path704" />
  <path
     d="m 635.6582,602.54283 c 0,4.464 3.69674,8.09101 8.16073,8.09101 4.53374,0 8.16073,-3.62701 8.16073,-8.16076 0,-4.46401 -3.62699,-8.16077 -8.16073,-8.16077 -4.46399,0 -8.16073,3.69676 -8.16073,8.16077"
     class="g1_1"
     id="path706"
     inkscape:connector-curvature="0"
     style="fill:none;stroke:#000000;stroke-width:1.39499986;stroke-linecap:round;stroke-linejoin:round" />
  <title
     id="title708">box9000 Page1</title>
  <flowRoot
     xml:space="preserve"
     id="flowRoot4040"
     style="font-style:normal;font-weight:normal;font-size:40px;line-height:125%;font-family:sans-serif;letter-spacing:0px;word-spacing:0px;fill:#000000;fill-opacity:1;stroke:none;stroke-width:1px;stroke-linecap:butt;stroke-linejoin:miter;stroke-opacity:1"
     transform="translate(-15.816922,255.04786)"><flowRegion
       id="flowRegion4042"><rect
         id="rect4044"
         width="113.88476"
         height="169.71051"
         x="1482.7341"
         y="589.29358" /></flowRegion><flowPara
       id="flowPara4046">Back</flowPara><flowPara
       id="flowPara4128">slide</flowPara></flowRoot>  <flowRoot
     xml:space="preserve"
     id="flowRoot4048"
     style="font-style:normal;font-weight:normal;font-size:40px;line-height:125%;font-family:sans-serif;letter-spacing:0px;word-spacing:0px;fill:#000000;fill-opacity:1;stroke:none;stroke-width:1px;stroke-linecap:butt;stroke-linejoin:miter;stroke-opacity:1"
     transform="translate(-36.31684,271.5868)"><flowRegion
       id="flowRegion4050"><rect
         id="rect4052"
         width="118.35077"
         height="62.524937"
         x="422.0433"
         y="495.50616" /></flowRegion><flowPara
       id="flowPara4054">Front</flowPara></flowRoot>  <flowRoot
     xml:space="preserve"
     id="flowRoot4056"
     style="font-style:normal;font-weight:normal;font-size:40px;line-height:125%;font-family:sans-serif;letter-spacing:0px;word-spacing:0px;fill:#000000;fill-opacity:1;stroke:none;stroke-width:1px;stroke-linecap:butt;stroke-linejoin:miter;stroke-opacity:1"><flowRegion
       id="flowRegion4058"><rect
         id="rect4060"
         width="131.74898"
         height="60.291901"
         x="582.82172"
         y="484.341" /></flowRegion><flowPara
       id="flowPara4062">right</flowPara></flowRoot>  <flowRoot
     xml:space="preserve"
     id="flowRoot4064"
     style="font-style:normal;font-weight:normal;font-size:40px;line-height:125%;font-family:sans-serif;letter-spacing:0px;word-spacing:0px;fill:#000000;fill-opacity:1;stroke:none;stroke-width:1px;stroke-linecap:butt;stroke-linejoin:miter;stroke-opacity:1"><flowRegion
       id="flowRegion4066"><rect
         id="rect4068"
         width="111.65167"
         height="53.5928"
         x="209.90514"
         y="517.83649" /></flowRegion><flowPara
       id="flowPara4070">left</flowPara></flowRoot>  <flowRoot
     xml:space="preserve"
     id="flowRoot4072"
     style="font-style:normal;font-weight:normal;font-size:40px;line-height:125%;font-family:sans-serif;letter-spacing:0px;word-spacing:0px;fill:#000000;fill-opacity:1;stroke:none;stroke-width:1px;stroke-linecap:butt;stroke-linejoin:miter;stroke-opacity:1"><flowRegion
       id="flowRegion4074"><rect
         id="rect4076"
         width="107.1856"
         height="62.524937"
         x="406.41208"
         y="1035.9003" /></flowRegion><flowPara
       id="flowPara4078">Bottom</flowPara></flowRoot>  <flowRoot
     xml:space="preserve"
     id="flowRoot4080"
     style="font-style:normal;font-weight:normal;font-size:40px;line-height:125%;font-family:sans-serif;letter-spacing:0px;word-spacing:0px;fill:#000000;fill-opacity:1;stroke:none;stroke-width:1px;stroke-linecap:butt;stroke-linejoin:miter;stroke-opacity:1"><flowRegion
       id="flowRegion4082"><rect
         id="rect4084"
         width="89.321335"
         height="46.8937"
         x="256.79883"
         y="191.81363" /></flowRegion><flowPara
       id="flowPara4086">top</flowPara></flowRoot>  <flowRoot
     xml:space="preserve"
     id="flowRoot4088"
     style="font-style:normal;font-weight:normal;font-size:40px;line-height:125%;font-family:sans-serif;letter-spacing:0px;word-spacing:0px;fill:#000000;fill-opacity:1;stroke:none;stroke-width:1px;stroke-linecap:butt;stroke-linejoin:miter;stroke-opacity:1"><flowRegion
       id="flowRegion4090"><rect
         id="rect4092"
         width="167.47751"
         height="53.5928"
         x="361.7514"
         y="1044.8324" /></flowRegion><flowPara
       id="flowPara4094">bottom</flowPara></flowRoot>  <flowRoot
     xml:space="preserve"
     id="flowRoot4096"
     style="font-style:normal;font-weight:normal;font-size:40px;line-height:125%;font-family:sans-serif;letter-spacing:0px;word-spacing:0px;fill:#000000;fill-opacity:1;stroke:none;stroke-width:1px;stroke-linecap:butt;stroke-linejoin:miter;stroke-opacity:1"><flowRegion
       id="flowRegion4098"><rect
         id="rect4100"
         width="194.27388"
         height="62.524899"
         x="352.81927"
         y="1165.4161" /></flowRegion><flowPara
       id="flowPara4102">Bottom 2</flowPara></flowRoot>  <flowRoot
     xml:space="preserve"
     id="flowRoot4104"
     style="font-style:normal;font-weight:normal;font-size:40px;line-height:125%;font-family:sans-serif;letter-spacing:0px;word-spacing:0px;fill:#000000;fill-opacity:1;stroke:none;stroke-width:1px;stroke-linecap:butt;stroke-linejoin:miter;stroke-opacity:1"><flowRegion
       id="flowRegion4106"><rect
         id="rect4108"
         width="183.10873"
         height="64.757965"
         x="368.4505"
         y="37.734333" /></flowRegion><flowPara
       id="flowPara4110">top 2</flowPara></flowRoot>  <flowRoot
     xml:space="preserve"
     id="flowRoot4112"
     style="fill:black;stroke:none;stroke-opacity:1;stroke-width:1px;stroke-linejoin:miter;stroke-linecap:butt;fill-opacity:1;font-family:sans-serif;font-style:normal;font-weight:normal;font-size:40px;line-height:125%;letter-spacing:0px;word-spacing:0px"><flowRegion
       id="flowRegion4114"><rect
         id="rect4116"
         width="71.457069"
         height="60.291901"
         x="1275.062"
         y="531.23474" /></flowRegion><flowPara
       id="flowPara4118" /></flowRoot>  <flowRoot
     xml:space="preserve"
     id="flowRoot4120"
     style="font-style:normal;font-weight:normal;font-size:40px;line-height:125%;font-family:sans-serif;letter-spacing:0px;word-spacing:0px;fill:#000000;fill-opacity:1;stroke:none;stroke-width:1px;stroke-linecap:butt;stroke-linejoin:miter;stroke-opacity:1"><flowRegion
       id="flowRegion4122"><rect
         id="rect4124"
         width="107.1856"
         height="40.194603"
         x="1013.7972"
         y="511.13742" /></flowRegion><flowPara
       id="flowPara4126">Bac</flowPara></flowRoot>  <flowRoot
     xml:space="preserve"
     id="flowRoot4130"
     style="font-style:normal;font-weight:normal;font-size:40px;line-height:125%;font-family:sans-serif;letter-spacing:0px;word-spacing:0px;fill:#000000;fill-opacity:1;stroke:none;stroke-width:1px;stroke-linecap:butt;stroke-linejoin:miter;stroke-opacity:1"><flowRegion
       id="flowRegion4132"><rect
         id="rect4134"
         width="140.68109"
         height="154.07933"
         x="1013.7972"
         y="517.83649" /></flowRegion><flowPara
       id="flowPara4136">Back fixed</flowPara><flowPara
       id="flowPara4138">2nd</flowPara></flowRoot>  <flowRoot
     xml:space="preserve"
     id="flowRoot4140"
     style="font-style:normal;font-weight:normal;font-size:40px;line-height:125%;font-family:sans-serif;letter-spacing:0px;word-spacing:0px;fill:#000000;fill-opacity:1;stroke:none;stroke-width:1px;stroke-linecap:butt;stroke-linejoin:miter;stroke-opacity:1"><flowRegion
       id="flowRegion4142"><rect
         id="rect4144"
         width="91.554367"
         height="107.1856"
         x="1281.7611"
         y="531.23474" /></flowRegion><flowPara
       id="flowPara4146">Back</flowPara></flowRoot>  <flowRoot
     xml:space="preserve"
     id="flowRoot4148"
     style="font-style:normal;font-weight:normal;font-size:40px;line-height:125%;font-family:sans-serif;letter-spacing:0px;word-spacing:0px;fill:#000000;fill-opacity:1;stroke:none;stroke-width:1px;stroke-linecap:butt;stroke-linejoin:miter;stroke-opacity:1"><flowRegion
       id="flowRegion4150"><rect
         id="rect4152"
         width="163.01144"
         height="491.26733"
         x="1232.6344"
         y="419.58304" /></flowRegion><flowPara
       id="flowPara4154">back</flowPara><flowPara
       id="flowPara4156">fixed</flowPara><flowPara
       id="flowPara4158">1st</flowPara></flowRoot>  <flowRoot
     xml:space="preserve"
     id="flowRoot4160"
     style="font-style:normal;font-weight:normal;font-size:40px;line-height:125%;font-family:sans-serif;letter-spacing:0px;word-spacing:0px;fill:#000000;fill-opacity:1;stroke:none;stroke-width:1px;stroke-linecap:butt;stroke-linejoin:miter;stroke-opacity:1"><flowRegion
       id="flowRegion4162"><rect
         id="rect4164"
         width="133.98201"
         height="107.1856"
         x="768.16351"
         y="595.99268" /></flowRegion><flowPara
       id="flowPara4166">Frame</flowPara></flowRoot>  <flowRoot
     xml:space="preserve"
     id="flowRoot3748"
     style="font-style:normal;font-weight:normal;font-size:40px;line-height:125%;font-family:sans-serif;letter-spacing:0px;word-spacing:0px;fill:#000000;fill-opacity:1;stroke:none;stroke-width:1px;stroke-linecap:butt;stroke-linejoin:miter;stroke-opacity:1"
     transform="matrix(1,0,0,1.1922083,0,-16.811222)"><flowRegion
       id="flowRegion3750"><rect
         id="rect3752"
         width="390.01129"
         height="161.65071"
         x="833.70831"
         y="76.491325" /></flowRegion><flowPara
       id="flowPara3754">Height: 200mm</flowPara><flowPara
       id="flowPara3756">width: 40mm</flowPara><flowPara
       id="flowPara3758">Length: 60mm</flowPara></flowRoot>  <flowRoot
     xml:space="preserve"
     id="flowRoot3760"
     style="font-style:normal;font-weight:normal;font-size:40px;line-height:125%;font-family:sans-serif;letter-spacing:0px;word-spacing:0px;fill:#000000;fill-opacity:1;stroke:none;stroke-width:1px;stroke-linecap:butt;stroke-linejoin:miter;stroke-opacity:1"
     transform="matrix(1.0444119,0,0,0.82188931,720.1045,124.61656)"><flowRegion
       id="flowRegion3762"><rect
         id="rect3764"
         width="450.01306"
         height="243.24728"
         x="568.4375"
         y="-116.14583" /></flowRegion><flowPara
       id="flowPara3766" /><flowPara
       id="flowPara3768">Available space:</flowPara><flowPara
       id="flowPara3770">height: 90</flowPara><flowPara
       id="flowPara3772">Length:60Width:40</flowPara><flowPara
       id="flowPara3774" /></flowRoot>  <rect
     style="fill:#0000ff;fill-rule:evenodd;stroke:#000000;stroke-width:1px;stroke-linecap:butt;stroke-linejoin:miter;stroke-opacity:1"
     id="rect3792"
     width="143.50394"
     height="212.59842"
     x="355.27344"
     y="307.02432" />
  <flowRoot
     xml:space="preserve"
     id="flowRoot3794"
     style="font-style:normal;font-weight:normal;font-size:40px;line-height:125%;font-family:sans-serif;letter-spacing:0px;word-spacing:0px;fill:#000000;fill-opacity:1;stroke:none;stroke-width:1px;stroke-linecap:butt;stroke-linejoin:miter;stroke-opacity:1"><flowRegion
       id="flowRegion3796"><rect
         id="rect3798"
         width="112.10851"
         height="41.053818"
         x="364.74741"
         y="325.97223" /></flowRegion><flowPara
       id="flowPara3800">C</flowPara></flowRoot>  <flowRoot
     xml:space="preserve"
     id="flowRoot3802"
     style="font-style:normal;font-weight:normal;font-size:22.5px;line-height:125%;font-family:sans-serif;letter-spacing:0px;word-spacing:0px;fill:#000000;fill-opacity:1;stroke:none;stroke-width:1px;stroke-linecap:butt;stroke-linejoin:miter;stroke-opacity:1;"><flowRegion
       id="flowRegion3804"><rect
         id="rect3806"
         width="115.26649"
         height="195.79514"
         x="371.06335"
         y="318.07727"
         style="font-size:22.5px;" /></flowRegion><flowPara
       id="flowPara3808">CHIP*12</flowPara></flowRoot>  <rect
     id="rect3810"
     width="244.48819"
     height="131.10236"
     x="-596.52295"
     y="356.68808"
     style="fill:#00ff00;fill-opacity:1"
     ry="0"
     transform="matrix(0,-1,1,0,0,0)" />
  <flowRoot
     xml:space="preserve"
     id="flowRoot4612"
     style="fill:black;stroke:none;stroke-opacity:1;stroke-width:1px;stroke-linejoin:miter;stroke-linecap:butt;fill-opacity:1;font-family:sans-serif;font-style:normal;font-weight:normal;font-size:16.25px;line-height:125%;letter-spacing:0px;word-spacing:0px;"><flowRegion
       id="flowRegion4614"><rect
         id="rect4616"
         width="106.76422"
         height="53.382111"
         x="373.67477"
         y="378.50412"
         style="font-size:16.25px;" /></flowRegion><flowPara
       id="flowPara4618" /></flowRoot>  <flowRoot
     xml:space="preserve"
     id="flowRoot4620"
     style="fill:black;stroke:none;stroke-opacity:1;stroke-width:1px;stroke-linejoin:miter;stroke-linecap:butt;fill-opacity:1;font-family:sans-serif;font-style:normal;font-weight:normal;font-size:25px;line-height:125%;letter-spacing:0px;word-spacing:0px;"><flowRegion
       id="flowRegion4622"><rect
         id="rect4624"
         width="94.901527"
         height="136.42094"
         x="373.67477"
         y="449.68027"
         style="font-size:25px;" /></flowRegion><flowPara
       id="flowPara4626" /></flowRoot>  <flowRoot
     xml:space="preserve"
     id="flowRoot4628"
     style="font-style:normal;font-weight:normal;font-size:22.5px;line-height:125%;font-family:sans-serif;letter-spacing:0px;word-spacing:0px;fill:#000000;fill-opacity:1;stroke:none;stroke-width:1px;stroke-linecap:butt;stroke-linejoin:miter;stroke-opacity:1;"><flowRegion
       id="flowRegion4630"><rect
         id="rect4632"
         width="118.62693"
         height="124.55827"
         x="369.72055"
         y="410.13797"
         style="font-size:22.5px"
         ry="0" /></flowRegion><flowPara
       id="flowPara4634">Battery*18mm</flowPara></flowRoot>  <flowRoot
     xml:space="preserve"
     id="flowRoot4636"
     style="font-style:normal;font-weight:normal;font-size:16.25px;line-height:125%;font-family:sans-serif;letter-spacing:0px;word-spacing:0px;fill:#000000;fill-opacity:1;stroke:none;stroke-width:1px;stroke-linecap:butt;stroke-linejoin:miter;stroke-opacity:1"
     transform="translate(39.542305,-41.51942)"><flowRegion
       id="flowRegion4638"><rect
         id="rect4640"
         width="104.78711"
         height="43.496536"
         x="599.06592"
         y="720.54504"
         style="font-size:16.25px" /></flowRegion><flowPara
       id="flowPara4642">^USB</flowPara></flowRoot></svg>
